M48
METRIC,LZ,000.000
;FILE_FORMAT=3:3
;TYPE=PLATED
;Layer: PTH_Through
;EasyEDA v6.5.54, 2026-03-22 15:16:46
;6f9b977f21994a1faa8b040afe4ab7d3,00ef3974653a4df1944c17f73e2cff10,10
;Gerber Generator version 0.2
;Holesize 1 = 0.850 mm
T01C0.850
;Holesize 2 = 0.915 mm
T02C0.915
;Holesize 3 = 1.199 mm
T03C1.199
;Holesize 4 = 1.501 mm
T04C1.501
%
G05
G90
T01
X024511Y042799
X027051Y042799
X024511Y050419
X027051Y050419
T02
X028829Y036830
X022352Y036830
X012192Y068072
X012192Y065532
X012192Y062992
X012192Y060452
X012192Y057912
X012192Y055372
X012192Y052832
X012192Y050292
X012192Y047752
X012192Y045212
X012192Y042672
X012192Y040132
X012192Y037592
X012192Y035052
X012192Y032512
X040132Y068072
X040132Y065532
X040132Y062992
X040132Y060452
X040132Y057912
X040132Y055372
X040132Y052832
X040132Y050292
X040132Y047752
X040132Y045212
X040132Y042672
X040132Y040132
X040132Y037592
X040132Y035052
X040132Y032512
T03
X020447Y032004
X030607Y032004
X020955Y055245
X031115Y055245
T04
X044667Y076962G85X044741Y076962
X044667Y071962G85X044741Y071962
X044667Y028956G85X044741Y028956
X044667Y023956G85X044741Y023956
M30
