G04 Layer: TopSilkscreenLayer*
G04 EasyEDA v6.5.54, 2026-03-22 15:16:46*
G04 6f9b977f21994a1faa8b040afe4ab7d3,00ef3974653a4df1944c17f73e2cff10,10*
G04 Gerber Generator version 0.2*
G04 Scale: 100 percent, Rotated: No, Reflected: No *
G04 Dimensions in millimeters *
G04 leading zeros omitted , absolute positions ,4 integer and 5 decimal *
%FSLAX45Y45*%
%MOMM*%

%ADD10C,0.1524*%
%ADD11C,0.1270*%
%ADD12C,0.2540*%
%ADD13C,0.1200*%
%ADD14C,0.2997*%
%ADD15C,0.3000*%
%ADD16C,0.0123*%

%LPD*%
G36*
X2657144Y6845096D02*
G01*
X2649677Y6827570D01*
X2646781Y6819544D01*
X2646375Y6817563D01*
X2648000Y6815988D01*
X2652471Y6813600D01*
X2659126Y6810705D01*
X2678379Y6803339D01*
X2698902Y6794652D01*
X2726994Y6781800D01*
X2749194Y6770725D01*
X2770936Y6758889D01*
X2792171Y6746240D01*
X2812796Y6732930D01*
X2822956Y6725970D01*
X2837891Y6715252D01*
X2847644Y6707886D01*
X2862021Y6696506D01*
X2880664Y6680758D01*
X2894228Y6668516D01*
X2907436Y6655917D01*
X2916021Y6647383D01*
X2928620Y6634225D01*
X2944774Y6616192D01*
X2960319Y6597548D01*
X2975102Y6578396D01*
X2985668Y6563715D01*
X2999181Y6543649D01*
X3011881Y6523075D01*
X3017977Y6512610D01*
X3026714Y6496710D01*
X3037636Y6475120D01*
X3042818Y6464198D01*
X3052470Y6441948D01*
X3060547Y6422593D01*
X3064662Y6415379D01*
X3068675Y6412992D01*
X3074060Y6413550D01*
X3081020Y6415278D01*
X3086303Y6417056D01*
X3090164Y6419291D01*
X3092805Y6422339D01*
X3094431Y6426657D01*
X3095345Y6432550D01*
X3095752Y6440474D01*
X3095752Y6457289D01*
X3095294Y6470345D01*
X3094380Y6483350D01*
X3093008Y6496354D01*
X3091230Y6509359D01*
X3088995Y6522262D01*
X3086303Y6535115D01*
X3083204Y6547916D01*
X3079648Y6560566D01*
X3075686Y6573164D01*
X3071317Y6585610D01*
X3066542Y6597903D01*
X3061309Y6610096D01*
X3055721Y6622084D01*
X3049727Y6633921D01*
X3043326Y6645605D01*
X3036519Y6657035D01*
X3029356Y6668262D01*
X3022701Y6677863D01*
X3016046Y6686499D01*
X3008376Y6695694D01*
X2999892Y6705193D01*
X2990799Y6714896D01*
X2981147Y6724650D01*
X2971241Y6734251D01*
X2961132Y6743547D01*
X2951073Y6752386D01*
X2941269Y6760565D01*
X2931769Y6767931D01*
X2922879Y6774332D01*
X2913430Y6780377D01*
X2902915Y6786727D01*
X2892247Y6792722D01*
X2881376Y6798411D01*
X2870403Y6803796D01*
X2859278Y6808876D01*
X2848000Y6813651D01*
X2836621Y6818071D01*
X2825089Y6822135D01*
X2813507Y6825945D01*
X2801772Y6829348D01*
X2789986Y6832498D01*
X2778099Y6835241D01*
X2766161Y6837680D01*
X2754122Y6839762D01*
X2742031Y6841540D01*
X2729941Y6842912D01*
X2717749Y6843979D01*
X2705557Y6844690D01*
X2693314Y6845046D01*
G37*
G36*
X2504389Y6800291D02*
G01*
X2500223Y6799173D01*
X2493314Y6796125D01*
X2484628Y6791604D01*
X2470150Y6782968D01*
X2459278Y6775856D01*
X2448458Y6768338D01*
X2438908Y6761276D01*
X2429611Y6753859D01*
X2425496Y6750202D01*
X2422499Y6747052D01*
X2420467Y6743953D01*
X2419146Y6740702D01*
X2418435Y6736943D01*
X2418130Y6732320D01*
X2418232Y6718147D01*
X2419451Y6700012D01*
X2422601Y6676390D01*
X2455519Y6676339D01*
X2466644Y6675983D01*
X2477922Y6675221D01*
X2489352Y6674103D01*
X2500934Y6672630D01*
X2512618Y6670802D01*
X2524353Y6668668D01*
X2536240Y6666128D01*
X2548178Y6663283D01*
X2560167Y6660083D01*
X2572156Y6656578D01*
X2584196Y6652768D01*
X2596184Y6648602D01*
X2608173Y6644131D01*
X2620162Y6639356D01*
X2632049Y6634327D01*
X2655671Y6623303D01*
X2667304Y6617360D01*
X2678836Y6611162D01*
X2690215Y6604711D01*
X2701442Y6597954D01*
X2711043Y6591808D01*
X2719781Y6585712D01*
X2729077Y6578600D01*
X2738882Y6570725D01*
X2759405Y6552946D01*
X2769768Y6543446D01*
X2790139Y6523685D01*
X2799740Y6513779D01*
X2808884Y6503974D01*
X2817266Y6494526D01*
X2824886Y6485483D01*
X2831490Y6477000D01*
X2838043Y6467754D01*
X2845155Y6457086D01*
X2852013Y6446215D01*
X2858566Y6435140D01*
X2864815Y6423964D01*
X2870758Y6412585D01*
X2876397Y6401104D01*
X2881731Y6389522D01*
X2886760Y6377838D01*
X2891434Y6366052D01*
X2895803Y6354216D01*
X2899816Y6342329D01*
X2903474Y6330391D01*
X2906826Y6318453D01*
X2909773Y6306464D01*
X2912414Y6294526D01*
X2914650Y6282588D01*
X2916529Y6270650D01*
X2918053Y6258814D01*
X2919222Y6247028D01*
X2921050Y6216446D01*
X2922066Y6205728D01*
X2922828Y6201816D01*
X2923844Y6198768D01*
X2925165Y6196380D01*
X2926943Y6194653D01*
X2929229Y6193485D01*
X2932074Y6192672D01*
X2939796Y6192012D01*
X2991764Y6190742D01*
X3011373Y6214110D01*
X3019145Y6224066D01*
X3027070Y6234887D01*
X3034182Y6245250D01*
X3050336Y6270752D01*
X3044901Y6302908D01*
X3042666Y6314846D01*
X3038805Y6332677D01*
X3035909Y6344462D01*
X3031134Y6362039D01*
X3027629Y6373723D01*
X3021939Y6391097D01*
X3017824Y6402578D01*
X3011220Y6419646D01*
X3004108Y6436512D01*
X2993796Y6458712D01*
X2982620Y6480454D01*
X2970530Y6501790D01*
X2960878Y6517436D01*
X2947263Y6537909D01*
X2932836Y6557822D01*
X2921457Y6572351D01*
X2909620Y6586626D01*
X2893009Y6605066D01*
X2884373Y6614058D01*
X2871012Y6627266D01*
X2861919Y6635851D01*
X2843022Y6652463D01*
X2828442Y6664452D01*
X2808325Y6679793D01*
X2787599Y6694424D01*
X2771648Y6704838D01*
X2749854Y6717995D01*
X2733192Y6727342D01*
X2710586Y6739026D01*
X2693314Y6747205D01*
X2669946Y6757263D01*
X2658160Y6761988D01*
X2646273Y6766458D01*
X2634284Y6770674D01*
X2616200Y6776567D01*
X2597962Y6781850D01*
X2573528Y6788048D01*
X2548890Y6793179D01*
X2519934Y6798208D01*
X2509774Y6799732D01*
G37*
G36*
X2349500Y6779666D02*
G01*
X2346960Y6777837D01*
X2341829Y6772859D01*
X2326690Y6756450D01*
X2318105Y6746392D01*
X2309774Y6736181D01*
X2301798Y6725818D01*
X2294178Y6715353D01*
X2286812Y6704685D01*
X2279802Y6693916D01*
X2273147Y6682994D01*
X2266797Y6671970D01*
X2260803Y6660743D01*
X2255113Y6649415D01*
X2249728Y6637934D01*
X2244699Y6626352D01*
X2240026Y6614617D01*
X2235657Y6602730D01*
X2231593Y6590741D01*
X2227884Y6578650D01*
X2224532Y6566408D01*
X2221484Y6554012D01*
X2218791Y6541516D01*
X2216454Y6528917D01*
X2214778Y6518148D01*
X2213457Y6506870D01*
X2212390Y6495135D01*
X2211679Y6483045D01*
X2211222Y6470700D01*
X2211070Y6451752D01*
X2211374Y6439052D01*
X2212289Y6419951D01*
X2213254Y6407404D01*
X2214524Y6395008D01*
X2216048Y6382867D01*
X2217826Y6371132D01*
X2219858Y6359855D01*
X2222195Y6349085D01*
X2224786Y6338874D01*
X2228240Y6326733D01*
X2232050Y6314744D01*
X2236063Y6302959D01*
X2240432Y6291275D01*
X2245055Y6279794D01*
X2249932Y6268466D01*
X2255113Y6257290D01*
X2260549Y6246317D01*
X2266289Y6235496D01*
X2272284Y6224879D01*
X2278532Y6214414D01*
X2285034Y6204153D01*
X2295347Y6189116D01*
X2302510Y6179312D01*
X2309977Y6169710D01*
X2317648Y6160312D01*
X2325624Y6151118D01*
X2333802Y6142126D01*
X2342286Y6133338D01*
X2350973Y6124752D01*
X2359964Y6116370D01*
X2369159Y6108242D01*
X2378608Y6100267D01*
X2388311Y6092545D01*
X2398217Y6085078D01*
X2408326Y6077813D01*
X2418588Y6070854D01*
X2428951Y6064199D01*
X2439416Y6057849D01*
X2450033Y6051753D01*
X2460752Y6045962D01*
X2471572Y6040424D01*
X2482494Y6035192D01*
X2493467Y6030264D01*
X2504592Y6025591D01*
X2515768Y6021222D01*
X2527046Y6017107D01*
X2538374Y6013297D01*
X2549804Y6009741D01*
X2572816Y6003544D01*
X2590190Y5999632D01*
X2607716Y5996381D01*
X2619451Y5994552D01*
X2642920Y5991758D01*
X2654757Y5990793D01*
X2666542Y5990132D01*
X2690164Y5989574D01*
X2702001Y5989726D01*
X2713837Y5990183D01*
X2737408Y5991961D01*
X2749194Y5993231D01*
X2760929Y5994806D01*
X2772664Y5996686D01*
X2784348Y5998819D01*
X2795981Y6001258D01*
X2807563Y6003950D01*
X2830525Y6010198D01*
X2841955Y6013754D01*
X2853283Y6017615D01*
X2864561Y6021730D01*
X2875737Y6026150D01*
X2886811Y6030823D01*
X2897835Y6035802D01*
X2908757Y6041034D01*
X2919577Y6046571D01*
X2940862Y6058509D01*
X2951327Y6064859D01*
X2961690Y6071514D01*
X2971901Y6078474D01*
X2982010Y6085687D01*
X2992882Y6093866D01*
X3013710Y6110528D01*
X3022396Y6118301D01*
X3026156Y6122771D01*
X3026867Y6126276D01*
X3024073Y6130696D01*
X3017266Y6137706D01*
X3012338Y6142329D01*
X3007918Y6146139D01*
X3004464Y6148730D01*
X3002381Y6149644D01*
X2999790Y6148324D01*
X2994761Y6144717D01*
X2988056Y6139383D01*
X2975914Y6129070D01*
X2966770Y6121603D01*
X2957220Y6114338D01*
X2947314Y6107277D01*
X2937052Y6100470D01*
X2926486Y6093866D01*
X2915666Y6087516D01*
X2904540Y6081420D01*
X2893161Y6075578D01*
X2881579Y6070041D01*
X2869844Y6064758D01*
X2857906Y6059830D01*
X2845816Y6055156D01*
X2833624Y6050838D01*
X2821330Y6046876D01*
X2808935Y6043218D01*
X2796540Y6039967D01*
X2784094Y6037072D01*
X2772714Y6034786D01*
X2761843Y6033008D01*
X2750261Y6031484D01*
X2738170Y6030264D01*
X2725674Y6029299D01*
X2712872Y6028588D01*
X2699969Y6028182D01*
X2680563Y6028029D01*
X2667812Y6028283D01*
X2655366Y6028842D01*
X2643327Y6029655D01*
X2631897Y6030722D01*
X2621178Y6032144D01*
X2611272Y6033770D01*
X2598216Y6036462D01*
X2585161Y6039561D01*
X2572156Y6043015D01*
X2559253Y6046825D01*
X2546400Y6050991D01*
X2533700Y6055461D01*
X2521153Y6060287D01*
X2508808Y6065418D01*
X2496667Y6070803D01*
X2484780Y6076492D01*
X2473147Y6082487D01*
X2461818Y6088684D01*
X2450846Y6095136D01*
X2440228Y6101791D01*
X2430018Y6108649D01*
X2420213Y6115761D01*
X2410866Y6123025D01*
X2402027Y6130442D01*
X2384196Y6145987D01*
X2399995Y6138824D01*
X2405278Y6136690D01*
X2410561Y6134963D01*
X2415844Y6133693D01*
X2421077Y6132880D01*
X2426258Y6132474D01*
X2431389Y6132474D01*
X2436418Y6132830D01*
X2441346Y6133541D01*
X2446223Y6134658D01*
X2450947Y6136081D01*
X2455519Y6137808D01*
X2459939Y6139891D01*
X2464257Y6142228D01*
X2468321Y6144818D01*
X2472283Y6147663D01*
X2479497Y6154115D01*
X2482748Y6157671D01*
X2485796Y6161430D01*
X2488590Y6165342D01*
X2491130Y6169456D01*
X2495296Y6178042D01*
X2496921Y6182512D01*
X2498191Y6187135D01*
X2499156Y6191808D01*
X2499817Y6196533D01*
X2500071Y6201308D01*
X2499918Y6206185D01*
X2499410Y6211011D01*
X2498496Y6215888D01*
X2497175Y6220764D01*
X2495397Y6225590D01*
X2493213Y6230366D01*
X2490520Y6235141D01*
X2487422Y6239814D01*
X2483612Y6244590D01*
X2479497Y6248958D01*
X2475179Y6252921D01*
X2470607Y6256477D01*
X2465781Y6259626D01*
X2460853Y6262319D01*
X2455722Y6264605D01*
X2450490Y6266484D01*
X2445105Y6267907D01*
X2439720Y6268974D01*
X2434234Y6269583D01*
X2428748Y6269786D01*
X2423210Y6269583D01*
X2417724Y6268923D01*
X2412288Y6267856D01*
X2406954Y6266383D01*
X2401722Y6264503D01*
X2396591Y6262166D01*
X2391613Y6259474D01*
X2386838Y6256324D01*
X2382266Y6252768D01*
X2377897Y6248755D01*
X2373782Y6244386D01*
X2369972Y6239560D01*
X2366924Y6235242D01*
X2364536Y6231280D01*
X2362657Y6227521D01*
X2361285Y6223762D01*
X2360320Y6219698D01*
X2359710Y6215176D01*
X2359304Y6203696D01*
X2359660Y6193790D01*
X2360879Y6184798D01*
X2362809Y6176975D01*
X2365552Y6170523D01*
X2371852Y6158687D01*
X2360015Y6169507D01*
X2353716Y6176111D01*
X2347061Y6183934D01*
X2340152Y6192723D01*
X2333040Y6202426D01*
X2325878Y6212840D01*
X2318715Y6223863D01*
X2311654Y6235344D01*
X2304745Y6247079D01*
X2298141Y6259017D01*
X2291892Y6270904D01*
X2286050Y6282740D01*
X2280818Y6294221D01*
X2276195Y6305346D01*
X2272030Y6316421D01*
X2268169Y6328308D01*
X2264613Y6340652D01*
X2261412Y6353403D01*
X2258568Y6366510D01*
X2256129Y6379870D01*
X2253996Y6393484D01*
X2252319Y6407150D01*
X2250948Y6420967D01*
X2250033Y6434734D01*
X2249474Y6448450D01*
X2249322Y6462014D01*
X2249576Y6475425D01*
X2250236Y6488531D01*
X2251354Y6501333D01*
X2252878Y6513728D01*
X2254859Y6525717D01*
X2257247Y6537655D01*
X2260041Y6549644D01*
X2263241Y6561632D01*
X2266899Y6573672D01*
X2270912Y6585610D01*
X2275281Y6597548D01*
X2280005Y6609334D01*
X2285085Y6621068D01*
X2290521Y6632651D01*
X2296261Y6644131D01*
X2302306Y6655358D01*
X2308656Y6666433D01*
X2315311Y6677253D01*
X2322220Y6687870D01*
X2329383Y6698183D01*
X2336800Y6708190D01*
X2344470Y6717842D01*
X2352344Y6727190D01*
X2360472Y6736130D01*
X2378354Y6754672D01*
X2359710Y6771995D01*
X2354986Y6776008D01*
X2351430Y6778701D01*
G37*
G36*
X2441244Y6631279D02*
G01*
X2427630Y6630822D01*
X2414320Y6629755D01*
X2402840Y6628282D01*
X2394712Y6626555D01*
X2382062Y6622186D01*
X2370074Y6616953D01*
X2358796Y6610908D01*
X2348179Y6604050D01*
X2343150Y6600393D01*
X2333599Y6592417D01*
X2329129Y6588201D01*
X2320798Y6579209D01*
X2313228Y6569557D01*
X2309774Y6564528D01*
X2306523Y6559296D01*
X2300681Y6548475D01*
X2298090Y6542836D01*
X2293620Y6531152D01*
X2291689Y6525158D01*
X2290013Y6519011D01*
X2288590Y6512712D01*
X2287422Y6506362D01*
X2285847Y6493611D01*
X2285187Y6481470D01*
X2285187Y6475526D01*
X2285898Y6463893D01*
X2287524Y6452666D01*
X2288641Y6447180D01*
X2291588Y6436461D01*
X2295448Y6426098D01*
X2300224Y6416090D01*
X2305913Y6406438D01*
X2312517Y6397091D01*
X2320036Y6388100D01*
X2328468Y6379413D01*
X2337866Y6370980D01*
X2347569Y6363360D01*
X2357374Y6356807D01*
X2362352Y6353860D01*
X2372614Y6348679D01*
X2383332Y6344310D01*
X2394661Y6340754D01*
X2406802Y6337909D01*
X2419858Y6335725D01*
X2459075Y6330188D01*
X2464257Y6329222D01*
X2469489Y6327902D01*
X2474823Y6326225D01*
X2480157Y6324193D01*
X2485491Y6321856D01*
X2490825Y6319164D01*
X2501341Y6312966D01*
X2511552Y6305702D01*
X2521305Y6297523D01*
X2530348Y6288582D01*
X2534615Y6283858D01*
X2542336Y6274003D01*
X2548991Y6263690D01*
X2551836Y6258458D01*
X2554173Y6253480D01*
X2558135Y6243218D01*
X2561082Y6232398D01*
X2562250Y6226860D01*
X2563825Y6215583D01*
X2564434Y6204102D01*
X2564130Y6192570D01*
X2562860Y6181090D01*
X2560726Y6169863D01*
X2559304Y6164326D01*
X2555798Y6153556D01*
X2551379Y6143294D01*
X2548839Y6138367D01*
X2543098Y6129070D01*
X2532380Y6113678D01*
X2548534Y6097778D01*
X2557932Y6089802D01*
X2562656Y6086348D01*
X2567432Y6083300D01*
X2572359Y6080556D01*
X2577490Y6078067D01*
X2582875Y6075832D01*
X2588514Y6073851D01*
X2600960Y6070447D01*
X2618790Y6066891D01*
X2635554Y6064046D01*
X2641854Y6063538D01*
X2646984Y6063640D01*
X2651252Y6064453D01*
X2654808Y6066078D01*
X2657906Y6068618D01*
X2660700Y6072022D01*
X2663494Y6076442D01*
X2669641Y6088532D01*
X2674874Y6099759D01*
X2679496Y6111087D01*
X2683510Y6122466D01*
X2687015Y6133947D01*
X2689961Y6145530D01*
X2692349Y6157163D01*
X2694178Y6168796D01*
X2695448Y6180480D01*
X2696159Y6192164D01*
X2696362Y6203848D01*
X2695956Y6215481D01*
X2695041Y6227114D01*
X2693568Y6238697D01*
X2691536Y6250228D01*
X2688996Y6261658D01*
X2685846Y6272987D01*
X2682240Y6284214D01*
X2678023Y6295339D01*
X2673299Y6306312D01*
X2668066Y6317132D01*
X2662275Y6327800D01*
X2655925Y6338265D01*
X2649067Y6348526D01*
X2641650Y6358585D01*
X2634488Y6367424D01*
X2626766Y6375958D01*
X2618486Y6384239D01*
X2609697Y6392164D01*
X2600502Y6399733D01*
X2590850Y6406946D01*
X2580843Y6413804D01*
X2570480Y6420256D01*
X2559812Y6426250D01*
X2548890Y6431838D01*
X2537714Y6436969D01*
X2526334Y6441643D01*
X2514854Y6445808D01*
X2503170Y6449415D01*
X2491486Y6452514D01*
X2479700Y6455054D01*
X2467914Y6456984D01*
X2447493Y6459423D01*
X2439771Y6460947D01*
X2433066Y6462928D01*
X2427376Y6465316D01*
X2422652Y6468160D01*
X2419045Y6471310D01*
X2416454Y6474866D01*
X2414981Y6478727D01*
X2414625Y6482892D01*
X2415387Y6487363D01*
X2417318Y6492087D01*
X2420416Y6497066D01*
X2422398Y6499656D01*
X2424379Y6501587D01*
X2426817Y6502958D01*
X2430018Y6503771D01*
X2434386Y6504178D01*
X2448356Y6503822D01*
X2464663Y6502755D01*
X2476398Y6501536D01*
X2488082Y6499860D01*
X2499614Y6497726D01*
X2511094Y6495135D01*
X2522423Y6492087D01*
X2533599Y6488633D01*
X2544673Y6484670D01*
X2555595Y6480302D01*
X2566365Y6475476D01*
X2576982Y6470192D01*
X2587447Y6464503D01*
X2597708Y6458407D01*
X2607818Y6451854D01*
X2617724Y6444894D01*
X2627426Y6437528D01*
X2636926Y6429705D01*
X2646222Y6421526D01*
X2655417Y6412738D01*
X2664307Y6403594D01*
X2672689Y6394348D01*
X2680563Y6384899D01*
X2687929Y6375196D01*
X2694838Y6365240D01*
X2701290Y6354927D01*
X2707386Y6344259D01*
X2713075Y6333236D01*
X2718409Y6321755D01*
X2723388Y6309766D01*
X2728112Y6297269D01*
X2732328Y6284823D01*
X2735529Y6273850D01*
X2737866Y6263335D01*
X2739491Y6251905D01*
X2740660Y6238341D01*
X2741472Y6221374D01*
X2742082Y6202273D01*
X2742336Y6186627D01*
X2742082Y6173216D01*
X2741218Y6161176D01*
X2739644Y6149543D01*
X2737154Y6137503D01*
X2733751Y6124092D01*
X2726486Y6099454D01*
X2726029Y6097219D01*
X2726283Y6095288D01*
X2727401Y6093460D01*
X2729636Y6091631D01*
X2733192Y6089650D01*
X2745181Y6084722D01*
X2783687Y6070650D01*
X2813862Y6079845D01*
X2832557Y6086398D01*
X2850540Y6093206D01*
X2862224Y6098184D01*
X2863951Y6099302D01*
X2869285Y6129020D01*
X2870860Y6139129D01*
X2872181Y6150305D01*
X2873197Y6162344D01*
X2874314Y6188252D01*
X2874264Y6215126D01*
X2873806Y6228384D01*
X2873044Y6241237D01*
X2872028Y6253480D01*
X2870657Y6264910D01*
X2869031Y6275324D01*
X2866644Y6287566D01*
X2863900Y6299758D01*
X2860751Y6311798D01*
X2857246Y6323787D01*
X2853385Y6335623D01*
X2849219Y6347307D01*
X2844647Y6358890D01*
X2839770Y6370320D01*
X2834538Y6381597D01*
X2829001Y6392722D01*
X2823108Y6403644D01*
X2816961Y6414465D01*
X2810459Y6425082D01*
X2803652Y6435496D01*
X2796540Y6445707D01*
X2789123Y6455765D01*
X2781452Y6465570D01*
X2773476Y6475222D01*
X2765247Y6484620D01*
X2756712Y6493764D01*
X2747924Y6502704D01*
X2738831Y6511391D01*
X2729534Y6519875D01*
X2719984Y6528054D01*
X2710180Y6535978D01*
X2700121Y6543598D01*
X2689809Y6551015D01*
X2679293Y6558076D01*
X2668574Y6564884D01*
X2657602Y6571386D01*
X2646426Y6577584D01*
X2635046Y6583476D01*
X2623210Y6589166D01*
X2611221Y6594551D01*
X2599131Y6599529D01*
X2586939Y6604203D01*
X2574696Y6608521D01*
X2562402Y6612483D01*
X2550058Y6616090D01*
X2537663Y6619341D01*
X2525318Y6622186D01*
X2513025Y6624675D01*
X2500782Y6626758D01*
X2488641Y6628485D01*
X2476601Y6629806D01*
X2464663Y6630670D01*
X2452878Y6631178D01*
G37*
G36*
X2598115Y4798822D02*
G01*
X2508097Y4798568D01*
X2377795Y4797501D01*
X2323795Y4796688D01*
X2280208Y4795723D01*
X2249373Y4794554D01*
X2239416Y4793894D01*
X2233472Y4793183D01*
X2227275Y4791405D01*
X2216759Y4787646D01*
X2211578Y4785461D01*
X2201519Y4780432D01*
X2191867Y4774692D01*
X2182672Y4768189D01*
X2173884Y4761077D01*
X2165654Y4753305D01*
X2158034Y4744974D01*
X2150973Y4736134D01*
X2144623Y4726787D01*
X2138934Y4716983D01*
X2134006Y4706823D01*
X2131822Y4701590D01*
X2128113Y4690922D01*
X2126386Y4684623D01*
X2125675Y4678527D01*
X2124405Y4654702D01*
X2123287Y4617161D01*
X2122373Y4568139D01*
X2121662Y4509871D01*
X2121103Y4436110D01*
X2120798Y4347616D01*
X2120825Y4215485D01*
X2172919Y4215485D01*
X2173020Y4224375D01*
X2173579Y4233265D01*
X2174646Y4242155D01*
X2176170Y4251045D01*
X2178202Y4259986D01*
X2180691Y4268927D01*
X2183739Y4277868D01*
X2187194Y4286808D01*
X2191207Y4295698D01*
X2196846Y4306062D01*
X2200148Y4311243D01*
X2207564Y4321352D01*
X2211679Y4326382D01*
X2220620Y4336084D01*
X2230323Y4345330D01*
X2240686Y4354017D01*
X2251557Y4362043D01*
X2257145Y4365802D01*
X2268524Y4372610D01*
X2280107Y4378502D01*
X2285898Y4381042D01*
X2297430Y4385259D01*
X2303119Y4386935D01*
X2318258Y4390542D01*
X2324100Y4392980D01*
X2327351Y4396130D01*
X2328976Y4400651D01*
X2331770Y4412335D01*
X2334920Y4423816D01*
X2338425Y4435094D01*
X2342337Y4446117D01*
X2346655Y4456938D01*
X2351278Y4467504D01*
X2356307Y4477816D01*
X2361641Y4487926D01*
X2367330Y4497781D01*
X2373325Y4507331D01*
X2379675Y4516628D01*
X2386279Y4525670D01*
X2393188Y4534458D01*
X2400401Y4542942D01*
X2407869Y4551121D01*
X2415641Y4559046D01*
X2423617Y4566615D01*
X2431897Y4573930D01*
X2440381Y4580940D01*
X2449118Y4587595D01*
X2458059Y4593894D01*
X2467203Y4599940D01*
X2476550Y4605578D01*
X2486101Y4610912D01*
X2495804Y4615942D01*
X2505710Y4620564D01*
X2515768Y4624832D01*
X2525979Y4628743D01*
X2536342Y4632248D01*
X2546858Y4635398D01*
X2557475Y4638192D01*
X2568194Y4640580D01*
X2579065Y4642561D01*
X2589987Y4644136D01*
X2601010Y4645304D01*
X2612085Y4646066D01*
X2623261Y4646422D01*
X2634488Y4646320D01*
X2645765Y4645812D01*
X2657094Y4644847D01*
X2668422Y4643424D01*
X2679801Y4641596D01*
X2691180Y4639310D01*
X2702560Y4636516D01*
X2714447Y4633112D01*
X2726131Y4629302D01*
X2737561Y4624984D01*
X2748788Y4620260D01*
X2759760Y4615129D01*
X2770479Y4609541D01*
X2780944Y4603546D01*
X2791104Y4597146D01*
X2801010Y4590389D01*
X2810662Y4583226D01*
X2819958Y4575708D01*
X2829001Y4567834D01*
X2837688Y4559604D01*
X2846120Y4551070D01*
X2854147Y4542180D01*
X2861868Y4532934D01*
X2869234Y4523384D01*
X2876245Y4513580D01*
X2882849Y4503420D01*
X2889097Y4493006D01*
X2894990Y4482338D01*
X2900476Y4471365D01*
X2905556Y4460189D01*
X2910179Y4448708D01*
X2914446Y4437024D01*
X2918206Y4425137D01*
X2921609Y4412996D01*
X2924505Y4400651D01*
X2926130Y4396130D01*
X2929382Y4392980D01*
X2935224Y4390542D01*
X2950159Y4387037D01*
X2960725Y4383938D01*
X2971088Y4380077D01*
X2981147Y4375505D01*
X2990900Y4370273D01*
X3000298Y4364329D01*
X3009341Y4357827D01*
X3017977Y4350715D01*
X3026156Y4343044D01*
X3033928Y4334916D01*
X3041192Y4326331D01*
X3047949Y4317288D01*
X3054146Y4307890D01*
X3059785Y4298137D01*
X3064814Y4288078D01*
X3069234Y4277715D01*
X3072942Y4267149D01*
X3076041Y4256430D01*
X3078378Y4245508D01*
X3079953Y4234484D01*
X3080766Y4223410D01*
X3080816Y4212285D01*
X3080156Y4202226D01*
X3079038Y4193387D01*
X3077514Y4184599D01*
X3075584Y4175912D01*
X3073196Y4167327D01*
X3070402Y4158843D01*
X3067202Y4150461D01*
X3063595Y4142232D01*
X3059633Y4134104D01*
X3055264Y4126077D01*
X3050540Y4118152D01*
X3045409Y4110380D01*
X3039922Y4102709D01*
X3034131Y4095191D01*
X3027934Y4087825D01*
X3021431Y4080560D01*
X3014573Y4073448D01*
X3007410Y4066489D01*
X2999943Y4059682D01*
X2992170Y4053027D01*
X2984093Y4046524D01*
X2971393Y4037025D01*
X2962554Y4030929D01*
X2953461Y4024985D01*
X2934512Y4013606D01*
X2919628Y4005529D01*
X2898902Y3995420D01*
X2877312Y3986072D01*
X2854807Y3977436D01*
X2831592Y3969664D01*
X2819654Y3966057D01*
X2801467Y3961079D01*
X2782925Y3956558D01*
X2757678Y3951376D01*
X2744825Y3949090D01*
X2725318Y3946093D01*
X2698851Y3942943D01*
X2685491Y3941724D01*
X2658465Y3940048D01*
X2644800Y3939590D01*
X2624226Y3939387D01*
X2596489Y3939997D01*
X2568600Y3941724D01*
X2540609Y3944518D01*
X2512466Y3948429D01*
X2498191Y3950868D01*
X2483815Y3953611D01*
X2469743Y3956608D01*
X2455875Y3959910D01*
X2442311Y3963466D01*
X2429002Y3967226D01*
X2415946Y3971239D01*
X2390698Y3980027D01*
X2378506Y3984751D01*
X2366619Y3989679D01*
X2354986Y3994861D01*
X2343708Y4000246D01*
X2332736Y4005783D01*
X2322068Y4011574D01*
X2311704Y4017518D01*
X2301697Y4023664D01*
X2291994Y4029964D01*
X2282647Y4036466D01*
X2273604Y4043121D01*
X2264968Y4049979D01*
X2256637Y4056938D01*
X2248712Y4064050D01*
X2241143Y4071315D01*
X2233879Y4078732D01*
X2227072Y4086250D01*
X2220620Y4093921D01*
X2214524Y4101744D01*
X2208834Y4109618D01*
X2203551Y4117644D01*
X2198674Y4125722D01*
X2194153Y4133951D01*
X2190089Y4142232D01*
X2186432Y4150614D01*
X2183231Y4159046D01*
X2180437Y4167581D01*
X2178050Y4176166D01*
X2176119Y4184853D01*
X2174646Y4193540D01*
X2173579Y4202277D01*
X2172919Y4215485D01*
X2120825Y4215485D01*
X2121662Y4076039D01*
X2122373Y4017772D01*
X2123287Y3968750D01*
X2124405Y3931208D01*
X2125675Y3907383D01*
X2126386Y3901287D01*
X2128164Y3894937D01*
X2131923Y3884117D01*
X2136444Y3873652D01*
X2141829Y3863644D01*
X2147874Y3853992D01*
X2154682Y3844899D01*
X2162098Y3836263D01*
X2170125Y3828237D01*
X2178710Y3820820D01*
X2187803Y3814064D01*
X2197404Y3807968D01*
X2202332Y3805174D01*
X2212594Y3800246D01*
X2223211Y3796080D01*
X2234133Y3792728D01*
X2239213Y3792016D01*
X2248306Y3791305D01*
X2277567Y3790086D01*
X2319680Y3789019D01*
X2372461Y3788206D01*
X2433574Y3787546D01*
X2572105Y3786886D01*
X2726232Y3786987D01*
X2858973Y3787952D01*
X2915158Y3788714D01*
X2961538Y3789679D01*
X2995879Y3790848D01*
X3007868Y3791458D01*
X3015945Y3792169D01*
X3018485Y3792575D01*
X3024886Y3794302D01*
X3035655Y3798062D01*
X3046069Y3802634D01*
X3051149Y3805174D01*
X3060954Y3810914D01*
X3070301Y3817365D01*
X3079191Y3824478D01*
X3087471Y3832199D01*
X3091434Y3836263D01*
X3098850Y3844899D01*
X3105607Y3853992D01*
X3111703Y3863644D01*
X3117037Y3873652D01*
X3121609Y3884117D01*
X3125368Y3894937D01*
X3127095Y3901287D01*
X3127806Y3907383D01*
X3128518Y3917442D01*
X3129686Y3948429D01*
X3130702Y3992016D01*
X3131515Y4045915D01*
X3132531Y4175912D01*
X3132785Y4265676D01*
X3132582Y4392523D01*
X3132175Y4469892D01*
X3131566Y4532782D01*
X3130753Y4587849D01*
X3129788Y4632858D01*
X3128619Y4665522D01*
X3127959Y4676546D01*
X3127248Y4683658D01*
X3125317Y4691176D01*
X3121558Y4701946D01*
X3116986Y4712360D01*
X3111652Y4722418D01*
X3105556Y4731969D01*
X3098800Y4741113D01*
X3091383Y4749698D01*
X3083306Y4757724D01*
X3074720Y4765141D01*
X3065576Y4771898D01*
X3055975Y4777994D01*
X3045968Y4783328D01*
X3035503Y4787900D01*
X3024682Y4791659D01*
X3018332Y4793386D01*
X3012287Y4794097D01*
X2988513Y4795367D01*
X2950921Y4796434D01*
X2901746Y4797298D01*
X2777845Y4798466D01*
G37*
G36*
X2550922Y4545685D02*
G01*
X2546908Y4545025D01*
X2542336Y4543247D01*
X2537866Y4540605D01*
X2533954Y4537405D01*
X2531364Y4534662D01*
X2529433Y4532020D01*
X2527960Y4528972D01*
X2526944Y4525264D01*
X2526284Y4520387D01*
X2525877Y4513986D01*
X2525674Y4495139D01*
X2525826Y4486198D01*
X2526233Y4478274D01*
X2526944Y4471263D01*
X2528011Y4465218D01*
X2529433Y4460036D01*
X2531211Y4455668D01*
X2533396Y4452112D01*
X2535986Y4449267D01*
X2539034Y4447184D01*
X2542489Y4445711D01*
X2546502Y4444847D01*
X2550922Y4444593D01*
X2555392Y4444847D01*
X2559354Y4445711D01*
X2562860Y4447184D01*
X2565908Y4449267D01*
X2568498Y4452112D01*
X2570683Y4455668D01*
X2572461Y4460036D01*
X2573883Y4465218D01*
X2574950Y4471263D01*
X2575661Y4478274D01*
X2576068Y4486198D01*
X2576220Y4495139D01*
X2576068Y4504080D01*
X2575661Y4512005D01*
X2574950Y4518964D01*
X2573883Y4525060D01*
X2572461Y4530242D01*
X2570683Y4534560D01*
X2568498Y4538167D01*
X2565908Y4540961D01*
X2562860Y4543094D01*
X2559354Y4544568D01*
X2555392Y4545380D01*
G37*
G36*
X2626715Y4545685D02*
G01*
X2622499Y4545177D01*
X2617825Y4543806D01*
X2613253Y4541723D01*
X2609443Y4539234D01*
X2606954Y4537049D01*
X2605024Y4534763D01*
X2603601Y4531969D01*
X2602636Y4528210D01*
X2602026Y4523079D01*
X2601671Y4516170D01*
X2601468Y4495139D01*
X2601569Y4485335D01*
X2601925Y4476851D01*
X2602484Y4469587D01*
X2603398Y4463440D01*
X2604617Y4458309D01*
X2606294Y4454194D01*
X2608326Y4450892D01*
X2610916Y4448403D01*
X2613964Y4446574D01*
X2617622Y4445406D01*
X2621838Y4444796D01*
X2626715Y4444593D01*
X2631643Y4444796D01*
X2635859Y4445406D01*
X2639517Y4446574D01*
X2642565Y4448403D01*
X2645156Y4450892D01*
X2647238Y4454194D01*
X2648864Y4458309D01*
X2650083Y4463440D01*
X2650998Y4469587D01*
X2651607Y4476851D01*
X2652014Y4495139D01*
X2651607Y4513376D01*
X2650998Y4520692D01*
X2650083Y4526838D01*
X2648864Y4531918D01*
X2647238Y4536084D01*
X2645156Y4539386D01*
X2642565Y4541875D01*
X2639517Y4543653D01*
X2635859Y4544822D01*
X2631643Y4545482D01*
G37*
G36*
X2702560Y4545685D02*
G01*
X2698496Y4545025D01*
X2693974Y4543247D01*
X2689453Y4540605D01*
X2685542Y4537405D01*
X2683002Y4534662D01*
X2681020Y4532020D01*
X2679547Y4528972D01*
X2678531Y4525264D01*
X2677871Y4520387D01*
X2677312Y4505706D01*
X2677414Y4486198D01*
X2677820Y4478274D01*
X2678582Y4471263D01*
X2679649Y4465218D01*
X2681071Y4460036D01*
X2682849Y4455668D01*
X2685034Y4452112D01*
X2687624Y4449267D01*
X2690622Y4447184D01*
X2694127Y4445711D01*
X2698089Y4444847D01*
X2702560Y4444593D01*
X2707030Y4444847D01*
X2710992Y4445711D01*
X2714498Y4447184D01*
X2717495Y4449267D01*
X2720086Y4452112D01*
X2722270Y4455668D01*
X2724048Y4460036D01*
X2725470Y4465218D01*
X2726537Y4471263D01*
X2727248Y4478274D01*
X2727655Y4486198D01*
X2727807Y4495139D01*
X2727655Y4504080D01*
X2727248Y4512005D01*
X2726537Y4518964D01*
X2725470Y4525060D01*
X2724048Y4530242D01*
X2722270Y4534560D01*
X2720086Y4538167D01*
X2717495Y4540961D01*
X2714498Y4543094D01*
X2710992Y4544568D01*
X2707030Y4545380D01*
G37*
G36*
X2587701Y4420870D02*
G01*
X2555189Y4420565D01*
X2541371Y4420209D01*
X2520746Y4418990D01*
X2514752Y4418076D01*
X2512974Y4417568D01*
X2509316Y4415688D01*
X2507742Y4414418D01*
X2506319Y4412894D01*
X2505049Y4410964D01*
X2503932Y4408627D01*
X2502916Y4405782D01*
X2501392Y4398162D01*
X2500274Y4387596D01*
X2499563Y4373524D01*
X2499207Y4355236D01*
X2499309Y4303826D01*
X2499754Y4255770D01*
X2563876Y4255770D01*
X2564231Y4260037D01*
X2565603Y4264355D01*
X2567990Y4268673D01*
X2572613Y4274769D01*
X2573629Y4277258D01*
X2574442Y4280509D01*
X2575102Y4284624D01*
X2575966Y4295648D01*
X2576220Y4310938D01*
X2576220Y4343501D01*
X2592882Y4343349D01*
X2596438Y4342790D01*
X2599842Y4341571D01*
X2603449Y4339539D01*
X2607513Y4336592D01*
X2618028Y4326940D01*
X2634335Y4310735D01*
X2642362Y4303268D01*
X2648204Y4298188D01*
X2651048Y4296308D01*
X2653436Y4297883D01*
X2653385Y4301947D01*
X2651150Y4307687D01*
X2643936Y4318711D01*
X2641904Y4323435D01*
X2640838Y4328210D01*
X2640634Y4332935D01*
X2641346Y4337507D01*
X2642819Y4341774D01*
X2645105Y4345736D01*
X2648153Y4349242D01*
X2651810Y4352188D01*
X2656179Y4354474D01*
X2661107Y4356049D01*
X2666593Y4356760D01*
X2669133Y4356049D01*
X2672740Y4353915D01*
X2676956Y4350715D01*
X2681224Y4346803D01*
X2684830Y4342688D01*
X2687421Y4338523D01*
X2689047Y4334306D01*
X2689606Y4330090D01*
X2689250Y4325823D01*
X2687828Y4321505D01*
X2685491Y4317187D01*
X2680868Y4311142D01*
X2679903Y4308652D01*
X2679039Y4305401D01*
X2678379Y4301286D01*
X2677871Y4296308D01*
X2677363Y4283202D01*
X2677261Y4242409D01*
X2660599Y4242562D01*
X2657094Y4243171D01*
X2653639Y4244390D01*
X2650032Y4246372D01*
X2646019Y4249369D01*
X2641244Y4253484D01*
X2619146Y4275175D01*
X2611120Y4282643D01*
X2605278Y4287723D01*
X2602382Y4289602D01*
X2600045Y4288028D01*
X2600096Y4283964D01*
X2602331Y4278274D01*
X2609748Y4266946D01*
X2611831Y4262069D01*
X2612898Y4257243D01*
X2612999Y4252518D01*
X2612288Y4248099D01*
X2610764Y4243984D01*
X2608580Y4240225D01*
X2605786Y4237024D01*
X2602484Y4234332D01*
X2598775Y4232300D01*
X2594762Y4231030D01*
X2590444Y4230624D01*
X2586024Y4231081D01*
X2581503Y4232554D01*
X2576982Y4235094D01*
X2572562Y4238802D01*
X2568905Y4243019D01*
X2566212Y4247235D01*
X2564536Y4251502D01*
X2563876Y4255770D01*
X2499754Y4255770D01*
X2500274Y4219905D01*
X2501188Y4194860D01*
X2501849Y4186834D01*
X2502662Y4181094D01*
X2503678Y4177131D01*
X2504897Y4174490D01*
X2506421Y4172610D01*
X2507488Y4171899D01*
X2511907Y4170679D01*
X2519019Y4169562D01*
X2528570Y4168597D01*
X2553512Y4167073D01*
X2584196Y4166108D01*
X2618079Y4165701D01*
X2661056Y4165955D01*
X2692755Y4166819D01*
X2719374Y4168190D01*
X2729992Y4169105D01*
X2738323Y4170121D01*
X2744114Y4171289D01*
X2745994Y4171950D01*
X2747060Y4172610D01*
X2747721Y4173728D01*
X2748991Y4178096D01*
X2750108Y4185208D01*
X2751074Y4194759D01*
X2752598Y4219702D01*
X2753563Y4250385D01*
X2753969Y4284268D01*
X2753868Y4318812D01*
X2753156Y4351426D01*
X2751886Y4379569D01*
X2751074Y4391152D01*
X2750108Y4400702D01*
X2748991Y4407814D01*
X2747772Y4412234D01*
X2747060Y4413300D01*
X2746044Y4413859D01*
X2741320Y4414926D01*
X2733446Y4415942D01*
X2722829Y4416907D01*
X2694889Y4418533D01*
X2660853Y4419752D01*
X2624023Y4420565D01*
G37*
G36*
X2424582Y4395216D02*
G01*
X2417876Y4395063D01*
X2411272Y4394606D01*
X2404973Y4393895D01*
X2399080Y4392828D01*
X2393746Y4391507D01*
X2389073Y4389882D01*
X2385212Y4388002D01*
X2382316Y4385767D01*
X2379116Y4381855D01*
X2376525Y4377385D01*
X2374747Y4372813D01*
X2374087Y4368800D01*
X2374341Y4364329D01*
X2375204Y4360367D01*
X2376678Y4356862D01*
X2378760Y4353814D01*
X2381605Y4351223D01*
X2385161Y4349038D01*
X2389530Y4347260D01*
X2394712Y4345838D01*
X2400757Y4344822D01*
X2407716Y4344060D01*
X2415692Y4343654D01*
X2435199Y4343552D01*
X2443480Y4343704D01*
X2449830Y4344111D01*
X2454706Y4344771D01*
X2458466Y4345787D01*
X2461463Y4347210D01*
X2464155Y4349191D01*
X2466848Y4351782D01*
X2470353Y4355846D01*
X2472791Y4360062D01*
X2474264Y4364380D01*
X2474772Y4368749D01*
X2474264Y4373168D01*
X2472791Y4377486D01*
X2470353Y4381703D01*
X2466848Y4385767D01*
X2464003Y4388002D01*
X2460142Y4389882D01*
X2455468Y4391507D01*
X2450134Y4392828D01*
X2444242Y4393895D01*
X2437892Y4394606D01*
X2431338Y4395063D01*
G37*
G36*
X2828899Y4395216D02*
G01*
X2822194Y4395063D01*
X2815590Y4394606D01*
X2809290Y4393895D01*
X2803398Y4392828D01*
X2798013Y4391507D01*
X2793339Y4389882D01*
X2789529Y4388002D01*
X2786634Y4385767D01*
X2783433Y4381855D01*
X2780792Y4377385D01*
X2779014Y4372813D01*
X2778353Y4368800D01*
X2778607Y4364329D01*
X2779471Y4360367D01*
X2780944Y4356862D01*
X2783078Y4353814D01*
X2785872Y4351223D01*
X2789428Y4349038D01*
X2793796Y4347260D01*
X2798978Y4345838D01*
X2805023Y4344822D01*
X2812034Y4344060D01*
X2819958Y4343654D01*
X2839466Y4343552D01*
X2847746Y4343704D01*
X2854147Y4344111D01*
X2858973Y4344771D01*
X2862732Y4345787D01*
X2865780Y4347210D01*
X2868422Y4349191D01*
X2871165Y4351782D01*
X2874619Y4355846D01*
X2877058Y4360062D01*
X2878582Y4364380D01*
X2879039Y4368749D01*
X2878582Y4373168D01*
X2877058Y4377486D01*
X2874619Y4381703D01*
X2871165Y4385767D01*
X2868269Y4388002D01*
X2864459Y4389882D01*
X2859786Y4391507D01*
X2854401Y4392828D01*
X2848508Y4393895D01*
X2842209Y4394606D01*
X2835605Y4395063D01*
G37*
G36*
X2413965Y4319320D02*
G01*
X2402078Y4318812D01*
X2397302Y4318304D01*
X2393340Y4317644D01*
X2390089Y4316780D01*
X2387600Y4315764D01*
X2383840Y4313224D01*
X2380640Y4310075D01*
X2378100Y4306366D01*
X2376170Y4302201D01*
X2374950Y4297730D01*
X2374493Y4293108D01*
X2374849Y4288383D01*
X2376017Y4283760D01*
X2377440Y4280357D01*
X2379167Y4277360D01*
X2381250Y4274769D01*
X2383790Y4272584D01*
X2386888Y4270806D01*
X2390546Y4269333D01*
X2394864Y4268216D01*
X2399944Y4267403D01*
X2405837Y4266895D01*
X2412644Y4266590D01*
X2429103Y4266742D01*
X2437739Y4267098D01*
X2445308Y4267657D01*
X2451862Y4268470D01*
X2457399Y4269587D01*
X2462072Y4271010D01*
X2465933Y4272788D01*
X2469032Y4274972D01*
X2471420Y4277563D01*
X2473147Y4280611D01*
X2474315Y4284167D01*
X2474925Y4288282D01*
X2475128Y4292955D01*
X2474925Y4297629D01*
X2474315Y4301744D01*
X2473147Y4305300D01*
X2471420Y4308398D01*
X2469032Y4310989D01*
X2465933Y4313123D01*
X2462072Y4314901D01*
X2457399Y4316323D01*
X2451862Y4317441D01*
X2445308Y4318254D01*
X2437739Y4318812D01*
X2421128Y4319320D01*
G37*
G36*
X2818231Y4319320D02*
G01*
X2806344Y4318812D01*
X2801569Y4318304D01*
X2797606Y4317644D01*
X2794355Y4316780D01*
X2791866Y4315764D01*
X2788107Y4313224D01*
X2784957Y4310075D01*
X2782366Y4306366D01*
X2780436Y4302201D01*
X2779268Y4297730D01*
X2778810Y4293108D01*
X2779115Y4288383D01*
X2780284Y4283760D01*
X2781706Y4280357D01*
X2783433Y4277360D01*
X2785516Y4274769D01*
X2788056Y4272584D01*
X2791155Y4270806D01*
X2794812Y4269333D01*
X2799130Y4268216D01*
X2804210Y4267403D01*
X2810103Y4266895D01*
X2816910Y4266590D01*
X2833370Y4266742D01*
X2842006Y4267098D01*
X2849575Y4267657D01*
X2856128Y4268470D01*
X2861665Y4269587D01*
X2866339Y4271010D01*
X2870200Y4272788D01*
X2873298Y4274972D01*
X2875686Y4277563D01*
X2877413Y4280611D01*
X2878582Y4284167D01*
X2879191Y4288282D01*
X2879394Y4292955D01*
X2879191Y4297629D01*
X2878582Y4301744D01*
X2877413Y4305300D01*
X2875686Y4308398D01*
X2873298Y4310989D01*
X2870200Y4313123D01*
X2866339Y4314901D01*
X2861665Y4316323D01*
X2856128Y4317441D01*
X2849575Y4318254D01*
X2842006Y4318812D01*
X2825394Y4319320D01*
G37*
G36*
X2424582Y4242409D02*
G01*
X2405735Y4242206D01*
X2399385Y4241850D01*
X2394508Y4241190D01*
X2390749Y4240123D01*
X2387752Y4238701D01*
X2385060Y4236720D01*
X2382316Y4234129D01*
X2379116Y4230217D01*
X2376525Y4225747D01*
X2374747Y4221175D01*
X2374087Y4217162D01*
X2374341Y4212691D01*
X2375204Y4208729D01*
X2376678Y4205224D01*
X2378760Y4202176D01*
X2381605Y4199585D01*
X2385161Y4197400D01*
X2389530Y4195622D01*
X2394712Y4194200D01*
X2400757Y4193184D01*
X2407716Y4192422D01*
X2415692Y4192015D01*
X2424582Y4191863D01*
X2433523Y4192015D01*
X2441448Y4192422D01*
X2448458Y4193184D01*
X2454503Y4194200D01*
X2459685Y4195622D01*
X2464054Y4197400D01*
X2467610Y4199585D01*
X2470454Y4202176D01*
X2472588Y4205224D01*
X2474010Y4208729D01*
X2474874Y4212691D01*
X2475128Y4217162D01*
X2474874Y4221632D01*
X2474010Y4225594D01*
X2472588Y4229049D01*
X2470454Y4232097D01*
X2467610Y4234688D01*
X2464054Y4236872D01*
X2459685Y4238650D01*
X2454503Y4240072D01*
X2448458Y4241139D01*
X2441448Y4241850D01*
X2433523Y4242308D01*
G37*
G36*
X2828899Y4242409D02*
G01*
X2810052Y4242206D01*
X2803652Y4241850D01*
X2798775Y4241190D01*
X2795016Y4240123D01*
X2792018Y4238701D01*
X2789377Y4236720D01*
X2786634Y4234129D01*
X2783433Y4230217D01*
X2780792Y4225747D01*
X2779014Y4221175D01*
X2778353Y4217162D01*
X2778607Y4212691D01*
X2779471Y4208729D01*
X2780944Y4205224D01*
X2783078Y4202176D01*
X2785872Y4199585D01*
X2789428Y4197400D01*
X2793796Y4195622D01*
X2798978Y4194200D01*
X2805023Y4193184D01*
X2812034Y4192422D01*
X2819958Y4192015D01*
X2828899Y4191863D01*
X2837840Y4192015D01*
X2845765Y4192422D01*
X2852724Y4193184D01*
X2858770Y4194200D01*
X2864002Y4195622D01*
X2868320Y4197400D01*
X2871876Y4199585D01*
X2874721Y4202176D01*
X2876854Y4205224D01*
X2878277Y4208729D01*
X2879140Y4212691D01*
X2879394Y4217162D01*
X2879140Y4221632D01*
X2878277Y4225594D01*
X2876854Y4229049D01*
X2874721Y4232097D01*
X2871876Y4234688D01*
X2868320Y4236872D01*
X2864002Y4238650D01*
X2858770Y4240072D01*
X2852724Y4241139D01*
X2845765Y4241850D01*
X2837840Y4242308D01*
G37*
G36*
X2550922Y4141317D02*
G01*
X2546908Y4140657D01*
X2542336Y4138879D01*
X2537866Y4136237D01*
X2533954Y4133037D01*
X2531364Y4130344D01*
X2529433Y4127652D01*
X2527960Y4124604D01*
X2526944Y4120896D01*
X2526284Y4116019D01*
X2525877Y4109618D01*
X2525674Y4090771D01*
X2525826Y4081830D01*
X2526233Y4073906D01*
X2526944Y4066946D01*
X2528011Y4060850D01*
X2529433Y4055668D01*
X2531211Y4051350D01*
X2533396Y4047744D01*
X2535986Y4044950D01*
X2539034Y4042816D01*
X2542489Y4041343D01*
X2546502Y4040530D01*
X2550922Y4040225D01*
X2555392Y4040530D01*
X2559354Y4041343D01*
X2562860Y4042816D01*
X2565908Y4044950D01*
X2568498Y4047744D01*
X2570683Y4051350D01*
X2572461Y4055668D01*
X2573883Y4060850D01*
X2574950Y4066946D01*
X2575661Y4073906D01*
X2576068Y4081830D01*
X2576220Y4090771D01*
X2576068Y4099712D01*
X2575661Y4107637D01*
X2574950Y4114647D01*
X2573883Y4120692D01*
X2572461Y4125874D01*
X2570683Y4130243D01*
X2568498Y4133799D01*
X2565908Y4136644D01*
X2562860Y4138726D01*
X2559354Y4140200D01*
X2555392Y4141063D01*
G37*
G36*
X2626715Y4141317D02*
G01*
X2622499Y4140809D01*
X2617825Y4139437D01*
X2613253Y4137406D01*
X2609443Y4134865D01*
X2606954Y4132681D01*
X2605024Y4130395D01*
X2603601Y4127601D01*
X2602636Y4123893D01*
X2602026Y4118762D01*
X2601671Y4111802D01*
X2601468Y4090771D01*
X2601569Y4081018D01*
X2601925Y4072534D01*
X2602484Y4065219D01*
X2603398Y4059072D01*
X2604617Y4053992D01*
X2606294Y4049826D01*
X2608326Y4046524D01*
X2610916Y4044035D01*
X2613964Y4042257D01*
X2617622Y4041089D01*
X2621838Y4040428D01*
X2626715Y4040225D01*
X2631643Y4040428D01*
X2635859Y4041089D01*
X2639517Y4042257D01*
X2642565Y4044035D01*
X2645156Y4046524D01*
X2647238Y4049826D01*
X2648864Y4053992D01*
X2650083Y4059072D01*
X2650998Y4065219D01*
X2651607Y4072534D01*
X2652014Y4090771D01*
X2651607Y4109059D01*
X2650998Y4116324D01*
X2650083Y4122470D01*
X2648864Y4127601D01*
X2647238Y4131716D01*
X2645156Y4135018D01*
X2642565Y4137507D01*
X2639517Y4139336D01*
X2635859Y4140504D01*
X2631643Y4141114D01*
G37*
G36*
X2702560Y4141317D02*
G01*
X2698496Y4140657D01*
X2693974Y4138879D01*
X2689453Y4136237D01*
X2685542Y4133037D01*
X2683002Y4130344D01*
X2681020Y4127652D01*
X2679547Y4124604D01*
X2678531Y4120896D01*
X2677871Y4116019D01*
X2677312Y4101337D01*
X2677414Y4081830D01*
X2677820Y4073906D01*
X2678582Y4066946D01*
X2679649Y4060850D01*
X2681071Y4055668D01*
X2682849Y4051350D01*
X2685034Y4047744D01*
X2687624Y4044950D01*
X2690622Y4042816D01*
X2694127Y4041343D01*
X2698089Y4040530D01*
X2702560Y4040225D01*
X2707030Y4040530D01*
X2710992Y4041343D01*
X2714498Y4042816D01*
X2717495Y4044950D01*
X2720086Y4047744D01*
X2722270Y4051350D01*
X2724048Y4055668D01*
X2725470Y4060850D01*
X2726537Y4066946D01*
X2727248Y4073906D01*
X2727655Y4081830D01*
X2727807Y4090771D01*
X2727655Y4099712D01*
X2727248Y4107637D01*
X2726537Y4114647D01*
X2725470Y4120692D01*
X2724048Y4125874D01*
X2722270Y4130243D01*
X2720086Y4133799D01*
X2717495Y4136644D01*
X2714498Y4138726D01*
X2710992Y4140200D01*
X2707030Y4141063D01*
G37*
G36*
X2674620Y3678123D02*
G01*
X2674620Y3669233D01*
X2709468Y3669233D01*
X2716225Y3668928D01*
X2721914Y3667912D01*
X2726791Y3665982D01*
X2731058Y3662984D01*
X2734970Y3658666D01*
X2738678Y3652824D01*
X2742488Y3645306D01*
X2760116Y3602583D01*
X2772460Y3629202D01*
X2777083Y3640074D01*
X2780690Y3649979D01*
X2782824Y3657854D01*
X2783179Y3662527D01*
X2784805Y3665118D01*
X2790444Y3667251D01*
X2799232Y3668674D01*
X2810205Y3669233D01*
X2838856Y3669233D01*
X2838856Y3606800D01*
X2842666Y3606800D01*
X2842920Y3612387D01*
X2843580Y3617772D01*
X2844647Y3622903D01*
X2846171Y3627882D01*
X2848051Y3632555D01*
X2850286Y3637026D01*
X2852928Y3641242D01*
X2855874Y3645204D01*
X2859176Y3648862D01*
X2862732Y3652316D01*
X2866644Y3655466D01*
X2870809Y3658362D01*
X2875229Y3660901D01*
X2879902Y3663187D01*
X2884830Y3665169D01*
X2889910Y3666845D01*
X2895244Y3668217D01*
X2900730Y3669233D01*
X2906369Y3669893D01*
X2912160Y3670249D01*
X2918104Y3670249D01*
X2924149Y3669893D01*
X2930296Y3669182D01*
X2936494Y3668115D01*
X2942793Y3666642D01*
X2949143Y3664813D01*
X2955493Y3662578D01*
X2961894Y3659936D01*
X2968193Y3657041D01*
X2972816Y3654551D01*
X2975914Y3652215D01*
X2977540Y3649929D01*
X2977794Y3647389D01*
X2976727Y3644493D01*
X2974390Y3641039D01*
X2970936Y3636772D01*
X2967228Y3632657D01*
X2963926Y3629761D01*
X2960878Y3628034D01*
X2957677Y3627577D01*
X2954172Y3628390D01*
X2950006Y3630422D01*
X2944977Y3633774D01*
X2938729Y3638397D01*
X2933293Y3642106D01*
X2927959Y3644950D01*
X2922625Y3646982D01*
X2917494Y3648151D01*
X2912465Y3648506D01*
X2907690Y3648151D01*
X2903169Y3647033D01*
X2898952Y3645154D01*
X2895041Y3642563D01*
X2891536Y3639312D01*
X2888437Y3635400D01*
X2885846Y3630879D01*
X2883712Y3625697D01*
X2882188Y3619957D01*
X2881223Y3613658D01*
X2881131Y3611879D01*
X2985566Y3611879D01*
X2985770Y3624173D01*
X2987090Y3635908D01*
X2988157Y3641394D01*
X2989478Y3646576D01*
X2991053Y3651402D01*
X2992831Y3655771D01*
X2994914Y3659632D01*
X2997250Y3662934D01*
X2999790Y3665575D01*
X3002584Y3667556D01*
X3005582Y3668776D01*
X3008833Y3669233D01*
X3013506Y3669182D01*
X3017418Y3668877D01*
X3020618Y3668268D01*
X3023260Y3667150D01*
X3025343Y3665372D01*
X3026918Y3662832D01*
X3028086Y3659378D01*
X3028899Y3654907D01*
X3029407Y3649167D01*
X3029813Y3633622D01*
X3030016Y3613962D01*
X3030575Y3605225D01*
X3031439Y3597249D01*
X3032658Y3590036D01*
X3034182Y3583635D01*
X3036011Y3578047D01*
X3038094Y3573322D01*
X3040481Y3569411D01*
X3043174Y3566414D01*
X3046069Y3564280D01*
X3049219Y3563061D01*
X3052572Y3562756D01*
X3056128Y3563416D01*
X3059938Y3564991D01*
X3063900Y3567582D01*
X3068015Y3571138D01*
X3071266Y3574846D01*
X3073857Y3579164D01*
X3075889Y3584244D01*
X3077362Y3590290D01*
X3078327Y3597351D01*
X3078734Y3605631D01*
X3078734Y3615232D01*
X3077514Y3639870D01*
X3077260Y3650183D01*
X3077616Y3657752D01*
X3078835Y3662984D01*
X3080969Y3666337D01*
X3084220Y3668217D01*
X3088792Y3669029D01*
X3094786Y3669233D01*
X3097276Y3668776D01*
X3099562Y3667506D01*
X3101695Y3665474D01*
X3103676Y3662679D01*
X3105454Y3659276D01*
X3107080Y3655314D01*
X3108452Y3650792D01*
X3110738Y3640429D01*
X3112211Y3628796D01*
X3112820Y3616299D01*
X3112668Y3603498D01*
X3112262Y3597148D01*
X3110738Y3584803D01*
X3109671Y3578961D01*
X3108350Y3573424D01*
X3106775Y3568293D01*
X3104997Y3563518D01*
X3102965Y3559251D01*
X3100730Y3555542D01*
X3098546Y3553206D01*
X3095548Y3551123D01*
X3091840Y3549294D01*
X3087522Y3547821D01*
X3082645Y3546551D01*
X3077362Y3545586D01*
X3065678Y3544468D01*
X3059480Y3544315D01*
X3046831Y3544773D01*
X3040481Y3545382D01*
X3034334Y3546246D01*
X3028340Y3547364D01*
X3022701Y3548735D01*
X3017418Y3550361D01*
X3012592Y3552190D01*
X3008325Y3554272D01*
X3004718Y3556609D01*
X3001772Y3559149D01*
X2998825Y3562756D01*
X2996133Y3566922D01*
X2993745Y3571544D01*
X2991713Y3576523D01*
X2989935Y3581908D01*
X2988513Y3587597D01*
X2987344Y3593439D01*
X2986481Y3599484D01*
X2985871Y3605682D01*
X2985566Y3611879D01*
X2881131Y3611879D01*
X2880868Y3606800D01*
X2881223Y3599992D01*
X2882188Y3593693D01*
X2883712Y3588004D01*
X2885846Y3582822D01*
X2888437Y3578301D01*
X2891536Y3574389D01*
X2895041Y3571138D01*
X2898902Y3568547D01*
X2903118Y3566617D01*
X2907588Y3565448D01*
X2912364Y3565042D01*
X2917291Y3565398D01*
X2922422Y3566515D01*
X2927654Y3568496D01*
X2932988Y3571290D01*
X2943961Y3579012D01*
X2948736Y3582060D01*
X2952953Y3584041D01*
X2956610Y3585006D01*
X2960014Y3584956D01*
X2963214Y3583940D01*
X2966415Y3581958D01*
X2969768Y3579063D01*
X2972308Y3576015D01*
X2973832Y3572967D01*
X2974340Y3569970D01*
X2973933Y3566972D01*
X2972562Y3564026D01*
X2970326Y3561232D01*
X2967278Y3558540D01*
X2963468Y3556000D01*
X2958896Y3553663D01*
X2953715Y3551529D01*
X2947873Y3549650D01*
X2941472Y3548024D01*
X2934512Y3546652D01*
X2927096Y3545636D01*
X2919222Y3545027D01*
X2910941Y3544722D01*
X2904744Y3544874D01*
X2898749Y3545332D01*
X2893060Y3546144D01*
X2887624Y3547313D01*
X2882442Y3548786D01*
X2877515Y3550615D01*
X2872943Y3552748D01*
X2868625Y3555237D01*
X2864612Y3557981D01*
X2860954Y3561029D01*
X2857550Y3564382D01*
X2854502Y3568039D01*
X2851810Y3572001D01*
X2849422Y3576167D01*
X2847390Y3580637D01*
X2845714Y3585413D01*
X2844393Y3590391D01*
X2843428Y3595624D01*
X2842869Y3601110D01*
X2842666Y3606800D01*
X2838856Y3606800D01*
X2838856Y3544417D01*
X2808020Y3544570D01*
X2802432Y3545128D01*
X2798419Y3546398D01*
X2795778Y3548735D01*
X2794304Y3552291D01*
X2793796Y3557371D01*
X2794050Y3564331D01*
X2797911Y3602329D01*
X2776524Y3565144D01*
X2772257Y3558387D01*
X2768447Y3553104D01*
X2764993Y3549345D01*
X2761742Y3547110D01*
X2758643Y3546348D01*
X2755544Y3547110D01*
X2752293Y3549345D01*
X2748838Y3553104D01*
X2745028Y3558387D01*
X2740761Y3565144D01*
X2719374Y3602329D01*
X2723235Y3564636D01*
X2723438Y3557828D01*
X2723032Y3552748D01*
X2721762Y3549091D01*
X2719527Y3546703D01*
X2716225Y3545281D01*
X2711704Y3544570D01*
X2701340Y3544468D01*
X2697581Y3544773D01*
X2694533Y3545586D01*
X2692095Y3547008D01*
X2690164Y3549345D01*
X2688691Y3552698D01*
X2687624Y3557371D01*
X2686913Y3563467D01*
X2686456Y3571290D01*
X2686100Y3592728D01*
X2686050Y3669233D01*
X2674620Y3669233D01*
X2674620Y3535527D01*
X3132988Y3535527D01*
X3132988Y3678123D01*
G37*
G36*
X2220163Y3675379D02*
G01*
X2218791Y3675278D01*
X2217420Y3674618D01*
X2216048Y3673348D01*
X2214778Y3671519D01*
X2213508Y3669029D01*
X2212289Y3665931D01*
X2211171Y3662222D01*
X2209241Y3652824D01*
X2207717Y3640734D01*
X2204821Y3598062D01*
X2168550Y3639667D01*
X2158339Y3650691D01*
X2149449Y3659174D01*
X2145487Y3662476D01*
X2141880Y3665118D01*
X2138527Y3667150D01*
X2135479Y3668522D01*
X2132736Y3669182D01*
X2130247Y3669233D01*
X2128012Y3668572D01*
X2126030Y3667302D01*
X2124252Y3665270D01*
X2122728Y3662629D01*
X2121408Y3659225D01*
X2120239Y3655161D01*
X2119325Y3650437D01*
X2117953Y3638753D01*
X2117191Y3624224D01*
X2116988Y3606800D01*
X2117140Y3583482D01*
X2117902Y3566718D01*
X2118512Y3560419D01*
X2119376Y3555441D01*
X2120442Y3551529D01*
X2121814Y3548634D01*
X2123490Y3546601D01*
X2125472Y3545281D01*
X2127808Y3544620D01*
X2130552Y3544417D01*
X2134311Y3544722D01*
X2137257Y3545840D01*
X2139492Y3547922D01*
X2140966Y3551174D01*
X2141829Y3555847D01*
X2142134Y3562045D01*
X2141880Y3570071D01*
X2140661Y3587953D01*
X2140407Y3594811D01*
X2140508Y3600602D01*
X2140966Y3605377D01*
X2141778Y3609035D01*
X2142998Y3611676D01*
X2144623Y3613251D01*
X2146655Y3613810D01*
X2149144Y3613251D01*
X2152142Y3611676D01*
X2155596Y3609035D01*
X2159558Y3605377D01*
X2164080Y3600602D01*
X2174748Y3587953D01*
X2186127Y3573526D01*
X2195525Y3562350D01*
X2203754Y3553714D01*
X2207412Y3550412D01*
X2210866Y3547719D01*
X2214016Y3545738D01*
X2216912Y3544366D01*
X2219553Y3543706D01*
X2221941Y3543706D01*
X2224125Y3544417D01*
X2226106Y3545738D01*
X2227834Y3547770D01*
X2229358Y3550513D01*
X2230729Y3553968D01*
X2231898Y3558082D01*
X2232863Y3562908D01*
X2233676Y3568446D01*
X2234793Y3581654D01*
X2235301Y3597706D01*
X2235301Y3614521D01*
X2234590Y3628694D01*
X2233371Y3641140D01*
X2231593Y3651808D01*
X2229459Y3660597D01*
X2228291Y3664305D01*
X2225700Y3670096D01*
X2224379Y3672230D01*
X2222957Y3673805D01*
X2221585Y3674872D01*
G37*
G36*
X2411069Y3669233D02*
G01*
X2411069Y3606800D01*
X2437790Y3606800D01*
X2438044Y3613607D01*
X2438755Y3619957D01*
X2439873Y3625900D01*
X2441397Y3631285D01*
X2443327Y3636264D01*
X2445562Y3640683D01*
X2448153Y3644595D01*
X2450998Y3647998D01*
X2454148Y3650792D01*
X2457500Y3653078D01*
X2461056Y3654755D01*
X2464765Y3655822D01*
X2468626Y3656279D01*
X2472639Y3656076D01*
X2476703Y3655212D01*
X2480868Y3653739D01*
X2485034Y3651554D01*
X2489200Y3648659D01*
X2493314Y3645052D01*
X2497378Y3640683D01*
X2500934Y3636010D01*
X2503830Y3631082D01*
X2506014Y3626053D01*
X2507589Y3620871D01*
X2508554Y3615588D01*
X2508859Y3610356D01*
X2508656Y3605123D01*
X2507843Y3599942D01*
X2506573Y3594912D01*
X2504694Y3590086D01*
X2502408Y3585464D01*
X2499614Y3581095D01*
X2496362Y3577082D01*
X2492705Y3573424D01*
X2488641Y3570224D01*
X2484221Y3567480D01*
X2479395Y3565245D01*
X2474264Y3563620D01*
X2468778Y3562604D01*
X2463038Y3562248D01*
X2452420Y3562451D01*
X2448458Y3562959D01*
X2445308Y3563924D01*
X2442819Y3565499D01*
X2440990Y3567836D01*
X2439619Y3571138D01*
X2438755Y3575507D01*
X2438196Y3581095D01*
X2437790Y3606800D01*
X2411069Y3606800D01*
X2411069Y3544417D01*
X2457805Y3544671D01*
X2465730Y3545027D01*
X2473096Y3545636D01*
X2479852Y3546500D01*
X2486101Y3547618D01*
X2491790Y3549040D01*
X2496972Y3550767D01*
X2501646Y3552748D01*
X2505862Y3555085D01*
X2509570Y3557778D01*
X2512872Y3560826D01*
X2515768Y3564280D01*
X2518206Y3568090D01*
X2520289Y3572306D01*
X2522016Y3576929D01*
X2523388Y3581958D01*
X2524404Y3587496D01*
X2525115Y3593439D01*
X2525522Y3599891D01*
X2525674Y3606800D01*
X2525522Y3613759D01*
X2525115Y3620211D01*
X2524404Y3626154D01*
X2523388Y3631641D01*
X2522016Y3636721D01*
X2520289Y3641344D01*
X2518206Y3645560D01*
X2515768Y3649370D01*
X2512872Y3652774D01*
X2509570Y3655822D01*
X2505862Y3658514D01*
X2501646Y3660851D01*
X2496972Y3662883D01*
X2491790Y3664610D01*
X2486101Y3665982D01*
X2479852Y3667099D01*
X2473096Y3667963D01*
X2465730Y3668572D01*
X2449271Y3669080D01*
G37*
G36*
X2552395Y3669233D02*
G01*
X2552395Y3544417D01*
X2616911Y3544570D01*
X2627122Y3545078D01*
X2636215Y3545890D01*
X2644038Y3546957D01*
X2650490Y3548278D01*
X2655265Y3549802D01*
X2658313Y3551478D01*
X2659329Y3553307D01*
X2658567Y3555136D01*
X2656332Y3556812D01*
X2652776Y3558286D01*
X2648102Y3559606D01*
X2642463Y3560724D01*
X2635961Y3561537D01*
X2628798Y3562045D01*
X2609291Y3562350D01*
X2600147Y3562807D01*
X2593390Y3563823D01*
X2588666Y3565601D01*
X2585618Y3568344D01*
X2583891Y3572256D01*
X2583129Y3577590D01*
X2582926Y3584549D01*
X2583129Y3591102D01*
X2583840Y3596233D01*
X2585212Y3600145D01*
X2587548Y3602990D01*
X2590952Y3604920D01*
X2595626Y3606088D01*
X2601823Y3606647D01*
X2609697Y3606800D01*
X2620060Y3607511D01*
X2628544Y3609441D01*
X2634335Y3612286D01*
X2636418Y3615740D01*
X2634335Y3619195D01*
X2628544Y3622040D01*
X2620060Y3623919D01*
X2597607Y3625443D01*
X2589326Y3627831D01*
X2584500Y3631996D01*
X2582926Y3637991D01*
X2583383Y3641496D01*
X2584856Y3644341D01*
X2587447Y3646678D01*
X2591206Y3648506D01*
X2596388Y3649827D01*
X2602992Y3650691D01*
X2611221Y3651199D01*
X2628798Y3651554D01*
X2635961Y3652062D01*
X2642463Y3652926D01*
X2648102Y3653993D01*
X2652776Y3655314D01*
X2656332Y3656837D01*
X2658567Y3658514D01*
X2659329Y3660292D01*
X2658313Y3662121D01*
X2655265Y3663848D01*
X2650490Y3665372D01*
X2644038Y3666642D01*
X2636215Y3667760D01*
X2627122Y3668522D01*
X2616911Y3669029D01*
X2605887Y3669233D01*
G37*
G36*
X2323592Y3666134D02*
G01*
X2317851Y3665677D01*
X2312060Y3664813D01*
X2306116Y3663442D01*
X2300122Y3661613D01*
X2294128Y3659276D01*
X2288032Y3656482D01*
X2283561Y3653942D01*
X2279446Y3651199D01*
X2275738Y3648252D01*
X2272385Y3645103D01*
X2269388Y3641750D01*
X2266746Y3638245D01*
X2264460Y3634587D01*
X2262530Y3630828D01*
X2260955Y3626916D01*
X2259685Y3622903D01*
X2258771Y3618839D01*
X2258212Y3614724D01*
X2257907Y3610559D01*
X2257953Y3606800D01*
X2285034Y3606800D01*
X2285288Y3612946D01*
X2286152Y3618737D01*
X2287473Y3624122D01*
X2289251Y3629101D01*
X2291486Y3633622D01*
X2294077Y3637737D01*
X2297023Y3641344D01*
X2300274Y3644493D01*
X2303780Y3647084D01*
X2307539Y3649218D01*
X2311501Y3650742D01*
X2315616Y3651758D01*
X2319832Y3652164D01*
X2324150Y3652012D01*
X2328468Y3651199D01*
X2332837Y3649776D01*
X2337104Y3647694D01*
X2341372Y3644950D01*
X2345436Y3641547D01*
X2349398Y3637381D01*
X2352751Y3633012D01*
X2355443Y3628390D01*
X2357526Y3623614D01*
X2359050Y3618687D01*
X2360015Y3613708D01*
X2360472Y3608679D01*
X2360371Y3603650D01*
X2359761Y3598722D01*
X2358694Y3593896D01*
X2357170Y3589223D01*
X2355189Y3584752D01*
X2352751Y3580536D01*
X2349957Y3576675D01*
X2346706Y3573119D01*
X2343150Y3570020D01*
X2339238Y3567328D01*
X2334971Y3565194D01*
X2330399Y3563569D01*
X2325522Y3562604D01*
X2320391Y3562248D01*
X2314956Y3562553D01*
X2309926Y3563569D01*
X2305354Y3565194D01*
X2301189Y3567480D01*
X2297480Y3570376D01*
X2294229Y3573881D01*
X2291486Y3577945D01*
X2289200Y3582619D01*
X2287371Y3587851D01*
X2286101Y3593642D01*
X2285288Y3599942D01*
X2285034Y3606800D01*
X2257953Y3606800D01*
X2258314Y3602177D01*
X2258923Y3598011D01*
X2259888Y3593846D01*
X2261108Y3589731D01*
X2262581Y3585718D01*
X2266442Y3577894D01*
X2268778Y3574135D01*
X2271318Y3570579D01*
X2274163Y3567125D01*
X2280564Y3560775D01*
X2284120Y3557930D01*
X2287879Y3555288D01*
X2291892Y3552850D01*
X2296109Y3550716D01*
X2300528Y3548887D01*
X2305151Y3547313D01*
X2309977Y3546094D01*
X2315006Y3545179D01*
X2320239Y3544620D01*
X2325624Y3544417D01*
X2330907Y3544773D01*
X2336241Y3545890D01*
X2341524Y3547618D01*
X2346706Y3549954D01*
X2351735Y3552850D01*
X2356561Y3556254D01*
X2361184Y3560114D01*
X2365552Y3564382D01*
X2369566Y3569004D01*
X2373172Y3573932D01*
X2376373Y3579063D01*
X2379116Y3584448D01*
X2381351Y3589934D01*
X2382977Y3595522D01*
X2383993Y3601161D01*
X2384348Y3606800D01*
X2384094Y3612896D01*
X2383383Y3618687D01*
X2382164Y3624224D01*
X2380589Y3629456D01*
X2378557Y3634435D01*
X2376119Y3639007D01*
X2373325Y3643325D01*
X2370175Y3647287D01*
X2366670Y3650894D01*
X2362860Y3654145D01*
X2358796Y3657041D01*
X2354427Y3659530D01*
X2349804Y3661664D01*
X2344928Y3663391D01*
X2339848Y3664712D01*
X2334615Y3665626D01*
X2329180Y3666083D01*
G37*
D10*
X2540000Y3950715D02*
G01*
X2540000Y3841750D01*
X2540000Y3950715D02*
G01*
X2576322Y3950715D01*
X2592070Y3945636D01*
X2602229Y3935221D01*
X2607563Y3924807D01*
X2612643Y3909060D01*
X2612643Y3883152D01*
X2607563Y3867657D01*
X2602229Y3857244D01*
X2592070Y3846829D01*
X2576322Y3841750D01*
X2540000Y3841750D01*
X2652268Y3924807D02*
G01*
X2652268Y3929887D01*
X2657347Y3940302D01*
X2662681Y3945636D01*
X2673095Y3950715D01*
X2693670Y3950715D01*
X2704084Y3945636D01*
X2709418Y3940302D01*
X2714497Y3929887D01*
X2714497Y3919473D01*
X2709418Y3909060D01*
X2699004Y3893565D01*
X2646934Y3841750D01*
X2719831Y3841750D01*
X4497070Y8065515D02*
G01*
X4497070Y7982458D01*
X4491736Y7966710D01*
X4486656Y7961629D01*
X4476241Y7956550D01*
X4465827Y7956550D01*
X4455413Y7961629D01*
X4450079Y7966710D01*
X4445000Y7982458D01*
X4445000Y7992871D01*
X4531359Y8044687D02*
G01*
X4541520Y8050021D01*
X4557268Y8065515D01*
X4557268Y7956550D01*
X4497070Y3264915D02*
G01*
X4497070Y3181857D01*
X4491736Y3166110D01*
X4486656Y3161029D01*
X4476241Y3155950D01*
X4465827Y3155950D01*
X4455413Y3161029D01*
X4450079Y3166110D01*
X4445000Y3181857D01*
X4445000Y3192271D01*
X4536440Y3239007D02*
G01*
X4536440Y3244087D01*
X4541520Y3254502D01*
X4546854Y3259836D01*
X4557268Y3264915D01*
X4578095Y3264915D01*
X4588509Y3259836D01*
X4593590Y3254502D01*
X4598670Y3244087D01*
X4598670Y3233673D01*
X4593590Y3223260D01*
X4583175Y3207765D01*
X4531359Y3155950D01*
X4604004Y3155950D01*
X2595879Y8024888D02*
G01*
X2595879Y7915922D01*
X2595879Y8024888D02*
G01*
X2668524Y7915922D01*
X2668524Y8024888D02*
G01*
X2668524Y7915922D01*
X2734056Y8024888D02*
G01*
X2723641Y8019808D01*
X2713227Y8009394D01*
X2708147Y7998980D01*
X2702813Y7983232D01*
X2702813Y7957324D01*
X2708147Y7941830D01*
X2713227Y7931416D01*
X2723641Y7921002D01*
X2734056Y7915922D01*
X2754884Y7915922D01*
X2765297Y7921002D01*
X2775711Y7931416D01*
X2780791Y7941830D01*
X2786125Y7957324D01*
X2786125Y7983232D01*
X2780791Y7998980D01*
X2775711Y8009394D01*
X2765297Y8019808D01*
X2754884Y8024888D01*
X2734056Y8024888D01*
X2820415Y8024888D02*
G01*
X2820415Y7915922D01*
X2820415Y8024888D02*
G01*
X2856738Y8024888D01*
X2872231Y8019808D01*
X2882645Y8009394D01*
X2887979Y7998980D01*
X2893059Y7983232D01*
X2893059Y7957324D01*
X2887979Y7941830D01*
X2882645Y7931416D01*
X2872231Y7921002D01*
X2856738Y7915922D01*
X2820415Y7915922D01*
X2927350Y8024888D02*
G01*
X2927350Y7915922D01*
X2927350Y8024888D02*
G01*
X2994913Y8024888D01*
X2927350Y7973072D02*
G01*
X2969006Y7973072D01*
X2927350Y7915922D02*
G01*
X2994913Y7915922D01*
X3029204Y8004060D02*
G01*
X3039618Y8009394D01*
X3055111Y8024888D01*
X3055111Y7915922D01*
X2146300Y5797308D02*
G01*
X2146300Y5700280D01*
X2146300Y5797308D02*
G01*
X2206243Y5797308D01*
X2146300Y5751080D02*
G01*
X2183129Y5751080D01*
X2146300Y5700280D02*
G01*
X2206243Y5700280D01*
X2301493Y5783338D02*
G01*
X2292350Y5792482D01*
X2278379Y5797308D01*
X2259838Y5797308D01*
X2246122Y5792482D01*
X2236724Y5783338D01*
X2236724Y5774194D01*
X2241550Y5764796D01*
X2246122Y5760224D01*
X2255265Y5755652D01*
X2282952Y5746508D01*
X2292350Y5741682D01*
X2296922Y5737110D01*
X2301493Y5727966D01*
X2301493Y5713996D01*
X2292350Y5704852D01*
X2278379Y5700280D01*
X2259838Y5700280D01*
X2246122Y5704852D01*
X2236724Y5713996D01*
X2331974Y5797308D02*
G01*
X2331974Y5700280D01*
X2331974Y5797308D02*
G01*
X2373629Y5797308D01*
X2387345Y5792482D01*
X2391918Y5787910D01*
X2396490Y5778766D01*
X2396490Y5764796D01*
X2391918Y5755652D01*
X2387345Y5751080D01*
X2373629Y5746508D01*
X2331974Y5746508D01*
X2426970Y5741682D02*
G01*
X2510281Y5741682D01*
X2563875Y5797308D02*
G01*
X2549906Y5792482D01*
X2545334Y5783338D01*
X2545334Y5774194D01*
X2549906Y5764796D01*
X2559050Y5760224D01*
X2577591Y5755652D01*
X2591561Y5751080D01*
X2600706Y5741682D01*
X2605277Y5732538D01*
X2605277Y5718822D01*
X2600706Y5709424D01*
X2596134Y5704852D01*
X2582163Y5700280D01*
X2563875Y5700280D01*
X2549906Y5704852D01*
X2545334Y5709424D01*
X2540761Y5718822D01*
X2540761Y5732538D01*
X2545334Y5741682D01*
X2554477Y5751080D01*
X2568447Y5755652D01*
X2586990Y5760224D01*
X2596134Y5764796D01*
X2600706Y5774194D01*
X2600706Y5783338D01*
X2596134Y5792482D01*
X2582163Y5797308D01*
X2563875Y5797308D01*
X2640329Y5774194D02*
G01*
X2640329Y5778766D01*
X2645156Y5787910D01*
X2649727Y5792482D01*
X2658872Y5797308D01*
X2677413Y5797308D01*
X2686558Y5792482D01*
X2691129Y5787910D01*
X2695956Y5778766D01*
X2695956Y5769622D01*
X2691129Y5760224D01*
X2681986Y5746508D01*
X2635758Y5700280D01*
X2700527Y5700280D01*
X2786379Y5783338D02*
G01*
X2781808Y5792482D01*
X2767838Y5797308D01*
X2758693Y5797308D01*
X2744724Y5792482D01*
X2735579Y5778766D01*
X2731008Y5755652D01*
X2731008Y5732538D01*
X2735579Y5713996D01*
X2744724Y5704852D01*
X2758693Y5700280D01*
X2763265Y5700280D01*
X2777236Y5704852D01*
X2786379Y5713996D01*
X2790952Y5727966D01*
X2790952Y5732538D01*
X2786379Y5746508D01*
X2777236Y5755652D01*
X2763265Y5760224D01*
X2758693Y5760224D01*
X2744724Y5755652D01*
X2735579Y5746508D01*
X2731008Y5732538D01*
X2876804Y5783338D02*
G01*
X2872231Y5792482D01*
X2858515Y5797308D01*
X2849118Y5797308D01*
X2835402Y5792482D01*
X2826004Y5778766D01*
X2821431Y5755652D01*
X2821431Y5732538D01*
X2826004Y5713996D01*
X2835402Y5704852D01*
X2849118Y5700280D01*
X2853690Y5700280D01*
X2867659Y5704852D01*
X2876804Y5713996D01*
X2881629Y5727966D01*
X2881629Y5732538D01*
X2876804Y5746508D01*
X2867659Y5755652D01*
X2853690Y5760224D01*
X2849118Y5760224D01*
X2835402Y5755652D01*
X2826004Y5746508D01*
X2821431Y5732538D01*
X2912109Y5741682D02*
G01*
X2995168Y5741682D01*
X3025647Y5778766D02*
G01*
X3034791Y5783338D01*
X3048761Y5797308D01*
X3048761Y5700280D01*
X3083813Y5774194D02*
G01*
X3083813Y5778766D01*
X3088386Y5787910D01*
X3092958Y5792482D01*
X3102356Y5797308D01*
X3120643Y5797308D01*
X3130041Y5792482D01*
X3134613Y5787910D01*
X3139186Y5778766D01*
X3139186Y5769622D01*
X3134613Y5760224D01*
X3125470Y5746508D01*
X3079241Y5700280D01*
X3143758Y5700280D01*
X3174238Y5797308D02*
G01*
X3174238Y5700280D01*
X3174238Y5797308D02*
G01*
X3234436Y5797308D01*
X3174238Y5751080D02*
G01*
X3211322Y5751080D01*
D11*
X2019300Y3043694D02*
G01*
X2019300Y2970796D01*
X2019300Y3043694D02*
G01*
X2043429Y3043694D01*
X2053843Y3040138D01*
X2060956Y3033280D01*
X2064258Y3026422D01*
X2067813Y3016008D01*
X2067813Y2998482D01*
X2064258Y2988322D01*
X2060956Y2981210D01*
X2053843Y2974352D01*
X2043429Y2970796D01*
X2019300Y2970796D01*
X2090674Y2998482D02*
G01*
X2132329Y2998482D01*
X2132329Y3005594D01*
X2128774Y3012452D01*
X2125218Y3016008D01*
X2118359Y3019310D01*
X2107945Y3019310D01*
X2101088Y3016008D01*
X2094229Y3008896D01*
X2090674Y2998482D01*
X2090674Y2991624D01*
X2094229Y2981210D01*
X2101088Y2974352D01*
X2107945Y2970796D01*
X2118359Y2970796D01*
X2125218Y2974352D01*
X2132329Y2981210D01*
X2193290Y3008896D02*
G01*
X2189734Y3016008D01*
X2179320Y3019310D01*
X2168906Y3019310D01*
X2158491Y3016008D01*
X2155190Y3008896D01*
X2158491Y3002038D01*
X2165350Y2998482D01*
X2182875Y2995180D01*
X2189734Y2991624D01*
X2193290Y2984766D01*
X2193290Y2981210D01*
X2189734Y2974352D01*
X2179320Y2970796D01*
X2168906Y2970796D01*
X2158491Y2974352D01*
X2155190Y2981210D01*
X2216150Y3043694D02*
G01*
X2219452Y3040138D01*
X2223008Y3043694D01*
X2219452Y3046996D01*
X2216150Y3043694D01*
X2219452Y3019310D02*
G01*
X2219452Y2970796D01*
X2287270Y3019310D02*
G01*
X2287270Y2963938D01*
X2283968Y2953524D01*
X2280411Y2950222D01*
X2273554Y2946666D01*
X2263140Y2946666D01*
X2256281Y2950222D01*
X2287270Y3008896D02*
G01*
X2280411Y3016008D01*
X2273554Y3019310D01*
X2263140Y3019310D01*
X2256281Y3016008D01*
X2249170Y3008896D01*
X2245868Y2998482D01*
X2245868Y2991624D01*
X2249170Y2981210D01*
X2256281Y2974352D01*
X2263140Y2970796D01*
X2273554Y2970796D01*
X2280411Y2974352D01*
X2287270Y2981210D01*
X2310129Y3019310D02*
G01*
X2310129Y2970796D01*
X2310129Y3005594D02*
G01*
X2320543Y3016008D01*
X2327656Y3019310D01*
X2338070Y3019310D01*
X2344927Y3016008D01*
X2348229Y3005594D01*
X2348229Y2970796D01*
X2371090Y2998482D02*
G01*
X2412745Y2998482D01*
X2412745Y3005594D01*
X2409190Y3012452D01*
X2405888Y3016008D01*
X2399029Y3019310D01*
X2388615Y3019310D01*
X2381504Y3016008D01*
X2374645Y3008896D01*
X2371090Y2998482D01*
X2371090Y2991624D01*
X2374645Y2981210D01*
X2381504Y2974352D01*
X2388615Y2970796D01*
X2399029Y2970796D01*
X2405888Y2974352D01*
X2412745Y2981210D01*
X2477261Y3043694D02*
G01*
X2477261Y2970796D01*
X2477261Y3008896D02*
G01*
X2470150Y3016008D01*
X2463291Y3019310D01*
X2452877Y3019310D01*
X2446020Y3016008D01*
X2439161Y3008896D01*
X2435606Y2998482D01*
X2435606Y2991624D01*
X2439161Y2981210D01*
X2446020Y2974352D01*
X2452877Y2970796D01*
X2463291Y2970796D01*
X2470150Y2974352D01*
X2477261Y2981210D01*
X2553461Y3043694D02*
G01*
X2553461Y2970796D01*
X2553461Y3008896D02*
G01*
X2560320Y3016008D01*
X2567177Y3019310D01*
X2577591Y3019310D01*
X2584450Y3016008D01*
X2591561Y3008896D01*
X2594863Y2998482D01*
X2594863Y2991624D01*
X2591561Y2981210D01*
X2584450Y2974352D01*
X2577591Y2970796D01*
X2567177Y2970796D01*
X2560320Y2974352D01*
X2553461Y2981210D01*
X2621279Y3019310D02*
G01*
X2642108Y2970796D01*
X2662936Y3019310D02*
G01*
X2642108Y2970796D01*
X2635250Y2957080D01*
X2628138Y2950222D01*
X2621279Y2946666D01*
X2617724Y2946666D01*
X2739136Y3043694D02*
G01*
X2739136Y2970796D01*
X2787650Y3043694D02*
G01*
X2739136Y2995180D01*
X2756408Y3012452D02*
G01*
X2787650Y2970796D01*
X2810509Y2998482D02*
G01*
X2851911Y2998482D01*
X2851911Y3005594D01*
X2848609Y3012452D01*
X2845054Y3016008D01*
X2838195Y3019310D01*
X2827781Y3019310D01*
X2820670Y3016008D01*
X2813811Y3008896D01*
X2810509Y2998482D01*
X2810509Y2991624D01*
X2813811Y2981210D01*
X2820670Y2974352D01*
X2827781Y2970796D01*
X2838195Y2970796D01*
X2845054Y2974352D01*
X2851911Y2981210D01*
X2874772Y3019310D02*
G01*
X2895600Y2970796D01*
X2916427Y3019310D02*
G01*
X2895600Y2970796D01*
X2942590Y2988322D02*
G01*
X2939288Y2984766D01*
X2942590Y2981210D01*
X2946145Y2984766D01*
X2942590Y2988322D01*
X2969006Y3029724D02*
G01*
X2975863Y3033280D01*
X2986277Y3043694D01*
X2986277Y2970796D01*
X3054350Y3019310D02*
G01*
X3050793Y3008896D01*
X3043936Y3002038D01*
X3033522Y2998482D01*
X3029965Y2998482D01*
X3019552Y3002038D01*
X3012693Y3008896D01*
X3009138Y3019310D01*
X3009138Y3022866D01*
X3012693Y3033280D01*
X3019552Y3040138D01*
X3029965Y3043694D01*
X3033522Y3043694D01*
X3043936Y3040138D01*
X3050793Y3033280D01*
X3054350Y3019310D01*
X3054350Y3002038D01*
X3050793Y2984766D01*
X3043936Y2974352D01*
X3033522Y2970796D01*
X3026409Y2970796D01*
X3016250Y2974352D01*
X3012693Y2981210D01*
X3094481Y3043694D02*
G01*
X3084068Y3040138D01*
X3080511Y3033280D01*
X3080511Y3026422D01*
X3084068Y3019310D01*
X3090925Y3016008D01*
X3104895Y3012452D01*
X3115309Y3008896D01*
X3122168Y3002038D01*
X3125470Y2995180D01*
X3125470Y2984766D01*
X3122168Y2977908D01*
X3118611Y2974352D01*
X3108197Y2970796D01*
X3094481Y2970796D01*
X3084068Y2974352D01*
X3080511Y2977908D01*
X3077209Y2984766D01*
X3077209Y2995180D01*
X3080511Y3002038D01*
X3087370Y3008896D01*
X3097784Y3012452D01*
X3111754Y3016008D01*
X3118611Y3019310D01*
X3122168Y3026422D01*
X3122168Y3033280D01*
X3118611Y3040138D01*
X3108197Y3043694D01*
X3094481Y3043694D01*
X3193541Y3019310D02*
G01*
X3189986Y3008896D01*
X3183127Y3002038D01*
X3172713Y2998482D01*
X3169158Y2998482D01*
X3158743Y3002038D01*
X3151886Y3008896D01*
X3148329Y3019310D01*
X3148329Y3022866D01*
X3151886Y3033280D01*
X3158743Y3040138D01*
X3169158Y3043694D01*
X3172713Y3043694D01*
X3183127Y3040138D01*
X3189986Y3033280D01*
X3193541Y3019310D01*
X3193541Y3002038D01*
X3189986Y2984766D01*
X3183127Y2974352D01*
X3172713Y2970796D01*
X3165856Y2970796D01*
X3155441Y2974352D01*
X3151886Y2981210D01*
D10*
X2552700Y3442715D02*
G01*
X2552700Y3333750D01*
X2552700Y3442715D02*
G01*
X2599436Y3442715D01*
X2614929Y3437636D01*
X2620263Y3432302D01*
X2625343Y3421887D01*
X2625343Y3411473D01*
X2620263Y3401060D01*
X2614929Y3395979D01*
X2599436Y3390900D01*
X2552700Y3390900D01*
X2589022Y3390900D02*
G01*
X2625343Y3333750D01*
X2659634Y3421887D02*
G01*
X2670047Y3427221D01*
X2685795Y3442715D01*
X2685795Y3333750D01*
X2603500Y5766815D02*
G01*
X2603500Y5657850D01*
X2603500Y5766815D02*
G01*
X2650236Y5766815D01*
X2665729Y5761736D01*
X2671063Y5756402D01*
X2676143Y5745987D01*
X2676143Y5735573D01*
X2671063Y5725160D01*
X2665729Y5720079D01*
X2650236Y5715000D01*
X2603500Y5715000D01*
X2639822Y5715000D02*
G01*
X2676143Y5657850D01*
X2715768Y5740907D02*
G01*
X2715768Y5745987D01*
X2720847Y5756402D01*
X2726181Y5761736D01*
X2736595Y5766815D01*
X2757170Y5766815D01*
X2767584Y5761736D01*
X2772918Y5756402D01*
X2777997Y5745987D01*
X2777997Y5735573D01*
X2772918Y5725160D01*
X2762504Y5709665D01*
X2710434Y5657850D01*
X2783331Y5657850D01*
X2552700Y5258815D02*
G01*
X2552700Y5180837D01*
X2557779Y5165344D01*
X2568193Y5154929D01*
X2583941Y5149850D01*
X2594356Y5149850D01*
X2609850Y5154929D01*
X2620263Y5165344D01*
X2625343Y5180837D01*
X2625343Y5258815D01*
X2659634Y5237987D02*
G01*
X2670047Y5243321D01*
X2685795Y5258815D01*
X2685795Y5149850D01*
D12*
X2654300Y3606800D02*
G01*
X2654300Y3784600D01*
X2349500Y3797300D02*
G01*
X2769488Y3797300D01*
X2769488Y3597300D01*
X2349500Y3597300D01*
X2349500Y3797300D01*
D13*
X4332800Y7083800D02*
G01*
X4314101Y7065101D01*
X4353600Y7054301D02*
G01*
X4339201Y7039902D01*
X4601598Y7352499D02*
G01*
X4587199Y7338100D01*
X4626698Y7327300D02*
G01*
X4607999Y7308700D01*
X4332800Y7583799D02*
G01*
X4314101Y7565100D01*
X4353600Y7554300D02*
G01*
X4339201Y7539901D01*
X4601598Y7852498D02*
G01*
X4587199Y7838099D01*
X4626698Y7827299D02*
G01*
X4607999Y7808699D01*
X4332800Y2283200D02*
G01*
X4314101Y2264501D01*
X4353600Y2253701D02*
G01*
X4339201Y2239302D01*
X4601598Y2551899D02*
G01*
X4587199Y2537500D01*
X4626698Y2526700D02*
G01*
X4607999Y2508100D01*
X4332800Y2783199D02*
G01*
X4314101Y2764500D01*
X4353600Y2753700D02*
G01*
X4339201Y2739301D01*
X4601598Y3051898D02*
G01*
X4587199Y3037499D01*
X4626698Y3026699D02*
G01*
X4607999Y3008099D01*
D14*
X3403607Y7317249D02*
G01*
X3403607Y7779534D01*
X2860037Y7779534D01*
X2860037Y7520449D01*
X2600965Y7520449D01*
X2600965Y7779534D01*
X2346965Y7779534D01*
X2346965Y7520449D01*
X2105665Y7520449D01*
X2105665Y7779534D01*
X1902465Y7779534D01*
X1902465Y7317249D01*
X3136907Y7309634D02*
G01*
X3136907Y7778262D01*
D12*
X2255522Y2275865D02*
G01*
X2255522Y2776242D01*
X2997200Y2776242D01*
X2997200Y2275865D01*
X2258059Y2339365D02*
G01*
X2994659Y2339365D01*
X2296159Y2776242D02*
G01*
X2255522Y2776242D01*
X2255522Y2621300D01*
X2946400Y2776242D02*
G01*
X2997200Y2776242D01*
X2997200Y2611142D01*
X2255522Y2372380D02*
G01*
X2255522Y2280942D01*
X2997200Y2372380D02*
G01*
X2997200Y2280942D01*
X2296159Y2270780D02*
G01*
X2280561Y2274265D01*
X2280561Y2274265D02*
G01*
X2255522Y2273322D01*
X2997200Y2275865D02*
G01*
X2971441Y2274265D01*
X2971441Y2274265D02*
G01*
X2959100Y2273322D01*
X2331361Y2236165D02*
G01*
X2920641Y2236165D01*
X2331361Y2215845D02*
G01*
X2920641Y2215845D01*
X2316126Y2253945D02*
G01*
X2316126Y2251402D01*
X2316126Y2251402D02*
G01*
X2316126Y2231080D01*
X2935884Y2253945D02*
G01*
X2935884Y2251402D01*
X2935884Y2251402D02*
G01*
X2935884Y2231080D01*
X2258059Y2273322D02*
G01*
X2232659Y2230142D01*
X2230122Y2227600D02*
G01*
X2250084Y2215845D01*
X2250084Y2215845D02*
G01*
X2278026Y2261565D01*
X2994659Y2273322D02*
G01*
X3020059Y2230142D01*
X3020059Y2227600D02*
G01*
X3001926Y2215845D01*
X3001926Y2215845D02*
G01*
X2973984Y2259022D01*
X1920237Y2781322D02*
G01*
X1920237Y2832122D01*
X2072637Y2832122D01*
X2072637Y2788145D01*
X1869437Y2425722D02*
G01*
X2123437Y2425722D01*
X2123437Y2781322D01*
X1869437Y2781322D01*
X1869437Y2425722D01*
X1920237Y2425722D01*
X1920237Y2374922D01*
X2072637Y2374922D01*
X2072637Y2425722D01*
X3175000Y2781322D02*
G01*
X3175000Y2832122D01*
X3327400Y2832122D01*
X3327400Y2790685D01*
X3124200Y2425722D02*
G01*
X3378200Y2425722D01*
X3378200Y2781322D01*
X3124200Y2781322D01*
X3124200Y2425722D01*
X3175000Y2425722D01*
X3175000Y2374922D01*
X3327400Y2374922D01*
X3327400Y2425722D01*
X1747773Y7865892D02*
G01*
X1747773Y6515884D01*
X1747773Y5315983D01*
X1747773Y5315983D02*
G01*
X3547874Y5315983D01*
X1747773Y7865892D02*
G01*
X3547874Y7865892D01*
X3547874Y7865892D02*
G01*
X3547874Y5315983D01*
X1747773Y7265941D02*
G01*
X3347720Y7265941D01*
X3547874Y7265941D01*
D14*
X3136905Y7309634D02*
G01*
X3136905Y7778264D01*
D12*
X1894839Y7012449D02*
G01*
X1894839Y5488449D01*
X3418840Y5488449D01*
X3418840Y7012449D01*
X1894839Y7012449D01*
X1064260Y7868932D02*
G01*
X4168140Y7868932D01*
X4168140Y2189492D01*
X1064260Y2189492D01*
X1064260Y7868932D01*
X2861899Y3098800D02*
G01*
X2231897Y3098800D01*
X2872740Y3299460D02*
G01*
X2872740Y3099460D01*
X2232659Y3299460D02*
G01*
X2862661Y3299460D01*
X2232659Y3101339D02*
G01*
X2232659Y3301339D01*
X2912699Y5422900D02*
G01*
X2282697Y5422900D01*
X2923540Y5623560D02*
G01*
X2923540Y5423560D01*
X2283459Y5623560D02*
G01*
X2913461Y5623560D01*
X2283459Y5425439D02*
G01*
X2283459Y5625439D01*
D10*
X2340480Y4402759D02*
G01*
X2340480Y4919040D01*
X2815719Y4919040D01*
X2815719Y4402759D01*
X2340480Y4402759D01*
D13*
G75*
G01*
X4676399Y7696200D02*
G03*
X4676399Y7695697I-205999J-251D01*
G75*
G01*
X4676399Y7196201D02*
G03*
X4676399Y7195698I-205999J-251D01*
G75*
G01*
X4676399Y2895600D02*
G03*
X4676399Y2895097I-205999J-251D01*
G75*
G01*
X4676399Y2395601D02*
G03*
X4676399Y2395098I-205999J-251D01*
D12*
G75*
G01*
X2273300Y2273323D02*
G02*
X2317750Y2257829I6997J-51434D01*
G75*
G01*
X2317750Y2253257D02*
G03*
X2332990Y2238779I15002J531D01*
G75*
G01*
X2317750Y2232683D02*
G03*
X2332990Y2217189I15004J-485D01*
G75*
G01*
X2922524Y2217189D02*
G03*
X2937764Y2232683I236J15009D01*
G75*
G01*
X2922524Y2238779D02*
G03*
X2937764Y2253257I238J15009D01*
G75*
G01*
X2937764Y2257829D02*
G02*
X2976880Y2273323I32959J-26085D01*
G75*
G01*
X2279396Y2263163D02*
G03*
X2283460Y2273323I-11596J10531D01*
G75*
G01*
X2976626Y2262655D02*
G02*
X2974340Y2273323I13209J8409D01*
D10*
G75*
G01*
X2340480Y4742150D02*
G02*
X2340480Y4579650I0J-81250D01*
D12*
G75*
G01
X1996440Y2590800D02*
G03X1996440Y2590800I-12700J0D01*
G75*
G01
X2021840Y2616200D02*
G03X2021840Y2616200I-12700J0D01*
G75*
G01
X2021840Y2603500D02*
G03X2021840Y2603500I-25400J0D01*
G75*
G01
X2047240Y2603500D02*
G03X2047240Y2603500I-50800J0D01*
G75*
G01
X2072640Y2603500D02*
G03X2072640Y2603500I-76200J0D01*
G75*
G01
X3251200Y2590800D02*
G03X3251200Y2590800I-12700J0D01*
G75*
G01
X3276600Y2616200D02*
G03X3276600Y2616200I-12700J0D01*
G75*
G01
X3276600Y2603500D02*
G03X3276600Y2603500I-25400J0D01*
G75*
G01
X3302000Y2603500D02*
G03X3302000Y2603500I-50800J0D01*
G75*
G01
X3327400Y2603500D02*
G03X3327400Y2603500I-76200J0D01*
D15*
G75*
G01
X2344674Y4279900D02*
G03X2344674Y4279900I-15011J0D01*
M02*
