G04 Layer: TopLayer*
G04 EasyEDA v6.5.54, 2026-03-22 15:16:46*
G04 6f9b977f21994a1faa8b040afe4ab7d3,00ef3974653a4df1944c17f73e2cff10,10*
G04 Gerber Generator version 0.2*
G04 Scale: 100 percent, Rotated: No, Reflected: No *
G04 Dimensions in millimeters *
G04 leading zeros omitted , absolute positions ,4 integer and 5 decimal *
%FSLAX45Y45*%
%MOMM*%

%ADD10C,1.2700*%
%ADD11C,1.8000*%
%ADD12C,3.0000*%
%ADD13C,1.5240*%
%ADD14C,1.8796*%
%ADD15O,1.524X2.299995*%
%ADD16O,0.0131X2.299995*%

%LPD*%
D10*
X4470400Y2395601D02*
G01*
X4826000Y2395601D01*
X4826000Y3505200D01*
X4013212Y3505200D01*
X4013200Y3251187D02*
G01*
X4114812Y3251187D01*
X4470400Y2895600D01*
X1219200Y5537212D02*
G01*
X1231912Y5524500D01*
X2095500Y5524500D01*
X3111500Y5524500D02*
G01*
X2451100Y5524500D01*
X2451100Y5041900D01*
X1219200Y6553212D02*
G01*
X1714512Y6057900D01*
X2463800Y6057900D01*
X2451100Y6045200D01*
X2451100Y5524500D01*
X2451100Y4279900D02*
G01*
X2451100Y4114800D01*
X2882900Y3683000D01*
X2235200Y3683000D02*
G01*
X2717800Y3200400D01*
X3060700Y3200400D01*
X4470400Y7696200D02*
G01*
X4076700Y8089900D01*
X901700Y8089900D01*
X850900Y8039100D01*
X850900Y2705100D01*
X1549400Y2705100D01*
X2044700Y3200400D01*
X4470400Y7196201D02*
G01*
X4436999Y7162800D01*
X3733800Y7162800D01*
X3657600Y7086600D01*
X3657600Y4279900D01*
X2705100Y4279900D01*
X2705100Y5041900D02*
G01*
X2692400Y5029200D01*
X2692400Y4813300D01*
X1727200Y4813300D01*
X1727200Y4013212D01*
X1219200Y3505212D01*
D11*
G01*
X2882900Y3683000D03*
G01*
X2235200Y3683000D03*
D12*
G01*
X4470400Y7696200D03*
G01*
X4470400Y7196201D03*
G01*
X4470400Y2895600D03*
G01*
X4470400Y2395601D03*
D13*
G01*
X1219200Y6807200D03*
G01*
X1219200Y6553200D03*
G01*
X1219200Y6299200D03*
G01*
X1219200Y6045200D03*
G01*
X1219200Y5791200D03*
G01*
X1219200Y5537200D03*
G01*
X1219200Y5283200D03*
G01*
X1219200Y5029200D03*
G01*
X1219200Y4775200D03*
G01*
X1219200Y4521200D03*
G01*
X1219200Y4267200D03*
G01*
X1219200Y4013200D03*
G01*
X1219200Y3759200D03*
G01*
X1219200Y3505200D03*
G01*
X1219200Y3251200D03*
G01*
X4013200Y6807174D03*
G01*
X4013200Y6553174D03*
G01*
X4013200Y6299174D03*
G01*
X4013200Y6045174D03*
G01*
X4013200Y5791174D03*
G01*
X4013200Y5537174D03*
G01*
X4013200Y5283174D03*
G01*
X4013200Y5029174D03*
G01*
X4013200Y4775174D03*
G01*
X4013200Y4521174D03*
G01*
X4013200Y4267174D03*
G01*
X4013200Y4013174D03*
G01*
X4013200Y3759174D03*
G01*
X4013200Y3505174D03*
G01*
X4013200Y3251174D03*
D14*
G01*
X2044700Y3200400D03*
G01*
X3060700Y3200400D03*
G01*
X2095500Y5524500D03*
G01*
X3111500Y5524500D03*
D15*
G01*
X2451100Y4279900D03*
G01*
X2705100Y4279900D03*
G01*
X2451100Y5041900D03*
G01*
X2705100Y5041900D03*
M02*
